<?xml version="1.0" encoding="UTF-8" standalone="no"?>
<!DOCTYPE svg PUBLIC "-//W3C//DTD SVG 1.1//EN" "http://www.w3.org/Graphics/SVG/1.1/DTD/svg11.dtd">
<svg width="100%" height="100%" viewBox="0 0 445 170" version="1.1" xmlns="http://www.w3.org/2000/svg" xmlns:xlink="http://www.w3.org/1999/xlink" xml:space="preserve" xmlns:serif="http://www.serif.com/" style="fill-rule:evenodd;clip-rule:evenodd;stroke-miterlimit:8;">
    <g transform="matrix(1,0,0,1,-255,-186.933)">
        <path d="M454.426,317.733L451.568,317.684L448.937,317.604L446.434,317.504L444.072,317.384L441.864,317.247L439.824,317.092L437.965,316.922L436.299,316.736L434.838,316.536L433.589,316.32L432.553,316.084L431.702,315.808L430.912,315.377L430.445,314.606L430.445,232.327L430.912,231.556L431.702,231.125L432.553,230.849L433.589,230.613L434.838,230.397L436.299,230.197L437.965,230.012L439.824,229.841L441.864,229.686L444.072,229.549L446.434,229.429L448.937,229.329L451.568,229.249L454.426,229.2L454.465,231.45L451.614,231.498L451.63,231.498L449.011,231.578L449.022,231.577L446.531,231.677L446.542,231.677L444.193,231.796L444.206,231.795L442.012,231.932L442.026,231.931L440.003,232.084L440.02,232.082L438.181,232.251L438.203,232.249L436.562,232.432L436.59,232.428L435.163,232.624L435.202,232.618L434.002,232.826L434.06,232.814L433.101,233.032L433.198,233.005L432.496,233.233L432.688,233.15L432.256,233.386L432.68,232.982L432.532,233.224L432.695,232.641L432.695,314.292L432.532,313.709L432.68,313.951L432.256,313.547L432.688,313.783L432.496,313.7L433.198,313.928L433.101,313.901L434.06,314.119L434.002,314.108L435.202,314.315L435.163,314.309L436.59,314.505L436.562,314.501L438.203,314.684L438.181,314.682L440.02,314.851L440.003,314.849L442.026,315.002L442.012,315.001L444.206,315.138L444.193,315.137L446.542,315.256L446.531,315.256L449.022,315.356L449.011,315.355L451.63,315.435L451.614,315.435L454.465,315.484L454.426,317.733ZM453.356,313.222L460.07,316.667L453.286,319.972L453.356,313.222ZM453.286,226.962L460.07,230.267L453.356,233.711L453.286,226.962Z" style="fill-rule:nonzero;"/>
    </g>
    <g transform="matrix(7.87398e-05,2.24551e-07,-2.24551e-07,7.87398e-05,83.8339,86.2665)">
        <path d="M-2.417,1695L1.18872e+06,1695" style="fill:none;stroke:black;stroke-width:28575px;"/>
    </g>
    <g transform="matrix(1,0,0,1,-255,-105.387)">
        <path d="M467.434,206.294C467.434,199.003 473.344,193.093 480.634,193.093L547.371,193.093C554.661,193.093 560.571,199.003 560.571,206.294L560.571,259.093C560.571,266.383 554.661,272.293 547.371,272.293L480.634,272.293C473.344,272.293 467.434,266.383 467.434,259.093L467.434,206.294Z" style="fill:rgb(217,217,217);fill-rule:nonzero;"/>
    </g>
    <g transform="matrix(1,0,0,1,220.199,106.08)">
        <g transform="matrix(16,0,0,16,0,0)">
            <path d="M0.373,0L0.285,0L0.285,-0.56C0.264,-0.54 0.236,-0.52 0.201,-0.5C0.167,-0.479 0.136,-0.464 0.109,-0.454L0.109,-0.539C0.158,-0.562 0.201,-0.59 0.238,-0.623C0.275,-0.656 0.301,-0.688 0.316,-0.719L0.373,-0.719L0.373,0Z" style="fill-rule:nonzero;"/>
        </g>
    </g>
    <g transform="matrix(1,0,0,1,-255,-276.196)">
        <path d="M466.869,291.698C466.869,284.408 472.779,278.498 480.069,278.498L684.105,278.498C691.395,278.498 697.305,284.408 697.305,291.698L697.305,344.498C697.305,351.788 691.395,357.698 684.105,357.698L480.069,357.698C472.779,357.698 466.869,351.788 466.869,344.498L466.869,291.698Z" style="fill:rgb(217,217,217);fill-rule:nonzero;"/>
    </g>
    <g transform="matrix(0,-7.87402e-05,7.87402e-05,0,231.046,73.1174)">
        <path d="M288235,0C447423,0 576470,129047 576470,288235C576470,447423 447423,576470 288235,576470C129047,576470 0,447423 0,288235C0,129047 129047,0 288235,0Z" style="fill:rgb(146,146,146);stroke:rgb(63,195,34);stroke-width:28575px;"/>
    </g>
    <g transform="matrix(1,0,0,1,-255,-259.809)">
        <path d="M545.092,308.779L604.267,308.779L604.267,311.029L545.092,311.029L545.092,308.779ZM603.142,306.529L609.892,309.904L603.142,313.279L603.142,306.529Z" style="fill-rule:nonzero;"/>
    </g>
    <g transform="matrix(0,-7.87402e-05,7.87402e-05,0,367.861,73.1174)">
        <path d="M288235,0C447423,0 576470,129047 576470,288235C576470,447423 447423,576470 288235,576470C129047,576470 0,447423 0,288235C0,129047 129047,0 288235,0Z" style="fill:rgb(209,23,17);stroke:rgb(32,195,22);stroke-width:28575px;"/>
    </g>
    <g transform="matrix(0,-7.87402e-05,7.87402e-05,0,232.861,159.117)">
        <path d="M288235,0C447423,0 576470,129047 576470,288235C576470,447423 447423,576470 288235,576470C129047,576470 0,447423 0,288235C0,129047 129047,0 288235,0Z" style="fill:rgb(209,23,17);stroke:black;stroke-width:28575px;"/>
    </g>
    <g transform="matrix(1,0,0,1,-12.8144,34.4353)">
        <g transform="matrix(15,0,0,15,15.0703,18.302)">
            <path d="M0.077,0L0.077,-0.716L0.324,-0.716C0.379,-0.716 0.422,-0.712 0.451,-0.706C0.492,-0.696 0.527,-0.679 0.556,-0.654C0.594,-0.622 0.622,-0.582 0.641,-0.532C0.66,-0.482 0.669,-0.426 0.669,-0.362C0.669,-0.307 0.663,-0.259 0.65,-0.217C0.637,-0.175 0.621,-0.141 0.601,-0.113C0.581,-0.086 0.559,-0.064 0.536,-0.048C0.512,-0.032 0.484,-0.02 0.45,-0.012C0.417,-0.004 0.379,0 0.335,0L0.077,0ZM0.172,-0.084L0.325,-0.084C0.372,-0.084 0.409,-0.089 0.436,-0.098C0.463,-0.106 0.484,-0.119 0.5,-0.135C0.522,-0.157 0.54,-0.187 0.552,-0.225C0.565,-0.263 0.571,-0.309 0.571,-0.363C0.571,-0.438 0.559,-0.496 0.534,-0.536C0.51,-0.576 0.48,-0.603 0.445,-0.617C0.419,-0.626 0.379,-0.631 0.322,-0.631L0.172,-0.631L0.172,-0.084Z" style="fill-rule:nonzero;"/>
        </g>
        <g transform="matrix(15,0,0,15,25.9028,18.302)">
            <path d="M0.066,-0.615L0.066,-0.716L0.154,-0.716L0.154,-0.615L0.066,-0.615ZM0.066,0L0.066,-0.519L0.154,-0.519L0.154,0L0.066,0Z" style="fill-rule:nonzero;"/>
        </g>
        <g transform="matrix(15,0,0,15,29.2353,18.302)">
            <path d="M0.21,0L0.013,-0.519L0.105,-0.519L0.217,-0.208C0.229,-0.174 0.24,-0.14 0.25,-0.104C0.258,-0.131 0.269,-0.164 0.283,-0.202L0.398,-0.519L0.488,-0.519L0.292,0L0.21,0Z" style="fill-rule:nonzero;"/>
        </g>
        <g transform="matrix(15,0,0,15,36.7353,18.302)">
            <path d="M0.066,-0.615L0.066,-0.716L0.154,-0.716L0.154,-0.615L0.066,-0.615ZM0.066,0L0.066,-0.519L0.154,-0.519L0.154,0L0.066,0Z" style="fill-rule:nonzero;"/>
        </g>
        <g transform="matrix(15,0,0,15,40.0678,18.302)">
            <path d="M0.031,-0.155L0.118,-0.168C0.123,-0.134 0.136,-0.107 0.158,-0.088C0.181,-0.07 0.212,-0.061 0.252,-0.061C0.292,-0.061 0.322,-0.069 0.342,-0.085C0.361,-0.102 0.371,-0.121 0.371,-0.143C0.371,-0.163 0.362,-0.179 0.345,-0.19C0.333,-0.198 0.303,-0.208 0.255,-0.22C0.191,-0.236 0.146,-0.25 0.121,-0.262C0.096,-0.274 0.078,-0.29 0.065,-0.311C0.052,-0.332 0.045,-0.355 0.045,-0.381C0.045,-0.404 0.051,-0.425 0.061,-0.445C0.072,-0.465 0.086,-0.481 0.104,-0.494C0.118,-0.504 0.137,-0.513 0.16,-0.52C0.184,-0.527 0.209,-0.53 0.236,-0.53C0.277,-0.53 0.313,-0.524 0.344,-0.513C0.374,-0.501 0.397,-0.485 0.412,-0.465C0.426,-0.445 0.436,-0.418 0.442,-0.385L0.356,-0.373C0.352,-0.4 0.341,-0.421 0.322,-0.436C0.303,-0.451 0.277,-0.458 0.243,-0.458C0.202,-0.458 0.174,-0.451 0.156,-0.438C0.139,-0.425 0.13,-0.409 0.13,-0.391C0.13,-0.38 0.134,-0.369 0.141,-0.36C0.148,-0.351 0.16,-0.343 0.175,-0.337C0.184,-0.334 0.209,-0.326 0.252,-0.314C0.315,-0.298 0.358,-0.284 0.383,-0.274C0.407,-0.263 0.426,-0.248 0.44,-0.228C0.454,-0.207 0.461,-0.182 0.461,-0.152C0.461,-0.123 0.453,-0.095 0.436,-0.07C0.419,-0.044 0.394,-0.024 0.362,-0.01C0.33,0.005 0.293,0.012 0.252,0.012C0.185,0.012 0.134,-0.002 0.098,-0.03C0.063,-0.058 0.041,-0.1 0.031,-0.155Z" style="fill-rule:nonzero;"/>
        </g>
        <g transform="matrix(15,0,0,15,47.5678,18.302)">
            <path d="M0.066,-0.615L0.066,-0.716L0.154,-0.716L0.154,-0.615L0.066,-0.615ZM0.066,0L0.066,-0.519L0.154,-0.519L0.154,0L0.066,0Z" style="fill-rule:nonzero;"/>
        </g>
        <g transform="matrix(15,0,0,15,50.9003,18.302)">
            <path d="M0.033,-0.259C0.033,-0.355 0.06,-0.426 0.113,-0.473C0.158,-0.511 0.212,-0.53 0.276,-0.53C0.348,-0.53 0.406,-0.507 0.451,-0.46C0.496,-0.413 0.519,-0.349 0.519,-0.267C0.519,-0.2 0.509,-0.147 0.489,-0.109C0.469,-0.071 0.44,-0.041 0.402,-0.02C0.363,0.001 0.322,0.012 0.276,0.012C0.204,0.012 0.145,-0.012 0.1,-0.058C0.056,-0.105 0.033,-0.172 0.033,-0.259ZM0.124,-0.259C0.124,-0.193 0.138,-0.143 0.167,-0.11C0.196,-0.077 0.232,-0.061 0.276,-0.061C0.32,-0.061 0.356,-0.077 0.385,-0.11C0.414,-0.144 0.429,-0.194 0.429,-0.262C0.429,-0.326 0.414,-0.375 0.385,-0.408C0.356,-0.441 0.32,-0.458 0.276,-0.458C0.232,-0.458 0.196,-0.441 0.167,-0.408C0.138,-0.375 0.124,-0.326 0.124,-0.259Z" style="fill-rule:nonzero;"/>
        </g>
        <g transform="matrix(15,0,0,15,59.2426,18.302)">
            <path d="M0.066,0L0.066,-0.519L0.145,-0.519L0.145,-0.445C0.183,-0.502 0.238,-0.53 0.31,-0.53C0.341,-0.53 0.37,-0.525 0.396,-0.513C0.422,-0.502 0.442,-0.487 0.455,-0.469C0.468,-0.451 0.477,-0.429 0.482,-0.404C0.486,-0.388 0.487,-0.36 0.487,-0.319L0.487,0L0.399,0L0.399,-0.315C0.399,-0.351 0.396,-0.378 0.389,-0.396C0.382,-0.413 0.37,-0.428 0.353,-0.438C0.335,-0.449 0.315,-0.454 0.292,-0.454C0.254,-0.454 0.222,-0.442 0.195,-0.418C0.167,-0.395 0.154,-0.35 0.154,-0.283L0.154,0L0.066,0Z" style="fill-rule:nonzero;"/>
        </g>
        <g transform="matrix(15,0,0,15,71.7524,18.302)">
            <path d="M0.079,0L0.079,-0.716L0.396,-0.716C0.46,-0.716 0.508,-0.709 0.542,-0.697C0.575,-0.684 0.601,-0.661 0.621,-0.628C0.641,-0.596 0.651,-0.56 0.651,-0.521C0.651,-0.47 0.634,-0.427 0.602,-0.392C0.569,-0.357 0.518,-0.335 0.449,-0.326C0.474,-0.314 0.493,-0.302 0.506,-0.29C0.534,-0.265 0.56,-0.233 0.585,-0.195L0.709,0L0.59,0L0.496,-0.149C0.468,-0.192 0.445,-0.225 0.427,-0.248C0.409,-0.27 0.393,-0.286 0.379,-0.295C0.365,-0.305 0.351,-0.311 0.336,-0.314C0.325,-0.317 0.308,-0.318 0.283,-0.318L0.173,-0.318L0.173,0L0.079,0ZM0.173,-0.4L0.377,-0.4C0.42,-0.4 0.454,-0.404 0.479,-0.413C0.503,-0.422 0.521,-0.437 0.534,-0.456C0.547,-0.476 0.553,-0.497 0.553,-0.521C0.553,-0.554 0.541,-0.582 0.516,-0.604C0.492,-0.626 0.453,-0.637 0.4,-0.637L0.173,-0.637L0.173,-0.4Z" style="fill-rule:nonzero;"/>
        </g>
        <g transform="matrix(15,0,0,15,82.5849,18.302)">
            <path d="M0.404,-0.064C0.372,-0.036 0.34,-0.017 0.31,-0.005C0.28,0.006 0.248,0.012 0.213,0.012C0.156,0.012 0.113,-0.002 0.082,-0.03C0.051,-0.058 0.036,-0.093 0.036,-0.137C0.036,-0.162 0.042,-0.185 0.053,-0.206C0.065,-0.227 0.08,-0.244 0.099,-0.257C0.118,-0.27 0.139,-0.279 0.162,-0.286C0.179,-0.29 0.205,-0.295 0.24,-0.299C0.311,-0.307 0.363,-0.317 0.397,-0.329C0.397,-0.341 0.397,-0.349 0.397,-0.352C0.397,-0.388 0.389,-0.413 0.373,-0.428C0.35,-0.448 0.317,-0.458 0.272,-0.458C0.231,-0.458 0.201,-0.45 0.181,-0.436C0.161,-0.421 0.147,-0.396 0.137,-0.359L0.051,-0.371C0.059,-0.407 0.072,-0.437 0.09,-0.46C0.108,-0.482 0.134,-0.5 0.167,-0.512C0.201,-0.524 0.241,-0.53 0.285,-0.53C0.329,-0.53 0.365,-0.525 0.393,-0.515C0.421,-0.504 0.441,-0.491 0.454,-0.475C0.467,-0.46 0.476,-0.44 0.481,-0.416C0.484,-0.401 0.486,-0.374 0.486,-0.334L0.486,-0.217C0.486,-0.136 0.488,-0.084 0.491,-0.062C0.495,-0.041 0.503,-0.02 0.514,0L0.422,0C0.413,-0.018 0.407,-0.04 0.404,-0.064ZM0.397,-0.26C0.365,-0.247 0.317,-0.236 0.253,-0.227C0.217,-0.222 0.192,-0.216 0.177,-0.209C0.162,-0.203 0.15,-0.193 0.142,-0.181C0.134,-0.168 0.13,-0.154 0.13,-0.139C0.13,-0.116 0.139,-0.096 0.156,-0.081C0.174,-0.065 0.2,-0.057 0.234,-0.057C0.268,-0.057 0.298,-0.065 0.325,-0.079C0.351,-0.094 0.37,-0.114 0.383,-0.14C0.392,-0.16 0.397,-0.189 0.397,-0.228L0.397,-0.26Z" style="fill-rule:nonzero;"/>
        </g>
        <g transform="matrix(15,0,0,15,90.9272,18.302)">
            <path d="M0.258,-0.079L0.271,-0.001C0.246,0.004 0.224,0.007 0.204,0.007C0.172,0.007 0.147,0.002 0.13,-0.008C0.112,-0.018 0.1,-0.032 0.093,-0.048C0.086,-0.065 0.082,-0.099 0.082,-0.152L0.082,-0.45L0.018,-0.45L0.018,-0.519L0.082,-0.519L0.082,-0.647L0.169,-0.7L0.169,-0.519L0.258,-0.519L0.258,-0.45L0.169,-0.45L0.169,-0.147C0.169,-0.122 0.171,-0.106 0.174,-0.099C0.177,-0.091 0.182,-0.086 0.189,-0.082C0.196,-0.077 0.206,-0.075 0.219,-0.075C0.229,-0.075 0.242,-0.076 0.258,-0.079Z" style="fill-rule:nonzero;"/>
        </g>
        <g transform="matrix(15,0,0,15,95.0947,18.302)">
            <path d="M0.421,-0.167L0.512,-0.156C0.497,-0.103 0.471,-0.062 0.432,-0.032C0.393,-0.003 0.344,0.012 0.284,0.012C0.208,0.012 0.148,-0.012 0.103,-0.058C0.059,-0.105 0.037,-0.171 0.037,-0.255C0.037,-0.342 0.059,-0.41 0.104,-0.458C0.149,-0.506 0.207,-0.53 0.279,-0.53C0.348,-0.53 0.405,-0.507 0.449,-0.459C0.493,-0.412 0.515,-0.346 0.515,-0.26C0.515,-0.255 0.514,-0.247 0.514,-0.237L0.127,-0.237C0.131,-0.18 0.147,-0.136 0.176,-0.106C0.205,-0.076 0.241,-0.061 0.284,-0.061C0.316,-0.061 0.344,-0.069 0.367,-0.086C0.389,-0.103 0.408,-0.13 0.421,-0.167ZM0.132,-0.309L0.422,-0.309C0.418,-0.353 0.407,-0.385 0.389,-0.407C0.361,-0.441 0.324,-0.458 0.28,-0.458C0.239,-0.458 0.205,-0.444 0.178,-0.417C0.15,-0.39 0.135,-0.354 0.132,-0.309Z" style="fill-rule:nonzero;"/>
        </g>
    </g>
    <g transform="matrix(1,0,0,1,88.4051,65.5527)">
        <g transform="matrix(15,0,0,15,3.38814,18.302)">
            <path d="M0.077,0L0.077,-0.716L0.324,-0.716C0.379,-0.716 0.422,-0.712 0.451,-0.706C0.492,-0.696 0.527,-0.679 0.556,-0.654C0.594,-0.622 0.622,-0.582 0.641,-0.532C0.66,-0.482 0.669,-0.426 0.669,-0.362C0.669,-0.307 0.663,-0.259 0.65,-0.217C0.637,-0.175 0.621,-0.141 0.601,-0.113C0.581,-0.086 0.559,-0.064 0.536,-0.048C0.512,-0.032 0.484,-0.02 0.45,-0.012C0.417,-0.004 0.379,0 0.335,0L0.077,0ZM0.172,-0.084L0.325,-0.084C0.372,-0.084 0.409,-0.089 0.436,-0.098C0.463,-0.106 0.484,-0.119 0.5,-0.135C0.522,-0.157 0.54,-0.187 0.552,-0.225C0.565,-0.263 0.571,-0.309 0.571,-0.363C0.571,-0.438 0.559,-0.496 0.534,-0.536C0.51,-0.576 0.48,-0.603 0.445,-0.617C0.419,-0.626 0.379,-0.631 0.322,-0.631L0.172,-0.631L0.172,-0.084Z" style="fill-rule:nonzero;"/>
        </g>
        <g transform="matrix(15,0,0,15,14.2207,18.302)">
            <path d="M0.421,-0.167L0.512,-0.156C0.497,-0.103 0.471,-0.062 0.432,-0.032C0.393,-0.003 0.344,0.012 0.284,0.012C0.208,0.012 0.148,-0.012 0.103,-0.058C0.059,-0.105 0.037,-0.171 0.037,-0.255C0.037,-0.342 0.059,-0.41 0.104,-0.458C0.149,-0.506 0.207,-0.53 0.279,-0.53C0.348,-0.53 0.405,-0.507 0.449,-0.459C0.493,-0.412 0.515,-0.346 0.515,-0.26C0.515,-0.255 0.514,-0.247 0.514,-0.237L0.127,-0.237C0.131,-0.18 0.147,-0.136 0.176,-0.106C0.205,-0.076 0.241,-0.061 0.284,-0.061C0.316,-0.061 0.344,-0.069 0.367,-0.086C0.389,-0.103 0.408,-0.13 0.421,-0.167ZM0.132,-0.309L0.422,-0.309C0.418,-0.353 0.407,-0.385 0.389,-0.407C0.361,-0.441 0.324,-0.458 0.28,-0.458C0.239,-0.458 0.205,-0.444 0.178,-0.417C0.15,-0.39 0.135,-0.354 0.132,-0.309Z" style="fill-rule:nonzero;"/>
        </g>
        <g transform="matrix(15,0,0,15,22.5629,18.302)">
            <path d="M0.404,-0.064C0.372,-0.036 0.34,-0.017 0.31,-0.005C0.28,0.006 0.248,0.012 0.213,0.012C0.156,0.012 0.113,-0.002 0.082,-0.03C0.051,-0.058 0.036,-0.093 0.036,-0.137C0.036,-0.162 0.042,-0.185 0.053,-0.206C0.065,-0.227 0.08,-0.244 0.099,-0.257C0.118,-0.27 0.139,-0.279 0.162,-0.286C0.179,-0.29 0.205,-0.295 0.24,-0.299C0.311,-0.307 0.363,-0.317 0.397,-0.329C0.397,-0.341 0.397,-0.349 0.397,-0.352C0.397,-0.388 0.389,-0.413 0.373,-0.428C0.35,-0.448 0.317,-0.458 0.272,-0.458C0.231,-0.458 0.201,-0.45 0.181,-0.436C0.161,-0.421 0.147,-0.396 0.137,-0.359L0.051,-0.371C0.059,-0.407 0.072,-0.437 0.09,-0.46C0.108,-0.482 0.134,-0.5 0.167,-0.512C0.201,-0.524 0.241,-0.53 0.285,-0.53C0.329,-0.53 0.365,-0.525 0.393,-0.515C0.421,-0.504 0.441,-0.491 0.454,-0.475C0.467,-0.46 0.476,-0.44 0.481,-0.416C0.484,-0.401 0.486,-0.374 0.486,-0.334L0.486,-0.217C0.486,-0.136 0.488,-0.084 0.491,-0.062C0.495,-0.041 0.503,-0.02 0.514,0L0.422,0C0.413,-0.018 0.407,-0.04 0.404,-0.064ZM0.397,-0.26C0.365,-0.247 0.317,-0.236 0.253,-0.227C0.217,-0.222 0.192,-0.216 0.177,-0.209C0.162,-0.203 0.15,-0.193 0.142,-0.181C0.134,-0.168 0.13,-0.154 0.13,-0.139C0.13,-0.116 0.139,-0.096 0.156,-0.081C0.174,-0.065 0.2,-0.057 0.234,-0.057C0.268,-0.057 0.298,-0.065 0.325,-0.079C0.351,-0.094 0.37,-0.114 0.383,-0.14C0.392,-0.16 0.397,-0.189 0.397,-0.228L0.397,-0.26Z" style="fill-rule:nonzero;"/>
        </g>
        <g transform="matrix(15,0,0,15,30.9052,18.302)">
            <path d="M0.258,-0.079L0.271,-0.001C0.246,0.004 0.224,0.007 0.204,0.007C0.172,0.007 0.147,0.002 0.13,-0.008C0.112,-0.018 0.1,-0.032 0.093,-0.048C0.086,-0.065 0.082,-0.099 0.082,-0.152L0.082,-0.45L0.018,-0.45L0.018,-0.519L0.082,-0.519L0.082,-0.647L0.169,-0.7L0.169,-0.519L0.258,-0.519L0.258,-0.45L0.169,-0.45L0.169,-0.147C0.169,-0.122 0.171,-0.106 0.174,-0.099C0.177,-0.091 0.182,-0.086 0.189,-0.082C0.196,-0.077 0.206,-0.075 0.219,-0.075C0.229,-0.075 0.242,-0.076 0.258,-0.079Z" style="fill-rule:nonzero;"/>
        </g>
        <g transform="matrix(15,0,0,15,35.0727,18.302)">
            <path d="M0.066,0L0.066,-0.716L0.154,-0.716L0.154,-0.459C0.195,-0.507 0.247,-0.53 0.309,-0.53C0.347,-0.53 0.381,-0.523 0.409,-0.508C0.438,-0.492 0.458,-0.472 0.47,-0.445C0.482,-0.418 0.488,-0.379 0.488,-0.329L0.488,0L0.4,0L0.4,-0.329C0.4,-0.373 0.391,-0.405 0.372,-0.425C0.353,-0.445 0.326,-0.455 0.291,-0.455C0.265,-0.455 0.24,-0.448 0.218,-0.434C0.195,-0.421 0.178,-0.403 0.168,-0.379C0.159,-0.356 0.154,-0.324 0.154,-0.284L0.154,0L0.066,0Z" style="fill-rule:nonzero;"/>
        </g>
        <g transform="matrix(15,0,0,15,47.5825,18.302)">
            <path d="M0.079,0L0.079,-0.716L0.396,-0.716C0.46,-0.716 0.508,-0.709 0.542,-0.697C0.575,-0.684 0.601,-0.661 0.621,-0.628C0.641,-0.596 0.651,-0.56 0.651,-0.521C0.651,-0.47 0.634,-0.427 0.602,-0.392C0.569,-0.357 0.518,-0.335 0.449,-0.326C0.474,-0.314 0.493,-0.302 0.506,-0.29C0.534,-0.265 0.56,-0.233 0.585,-0.195L0.709,0L0.59,0L0.496,-0.149C0.468,-0.192 0.445,-0.225 0.427,-0.248C0.409,-0.27 0.393,-0.286 0.379,-0.295C0.365,-0.305 0.351,-0.311 0.336,-0.314C0.325,-0.317 0.308,-0.318 0.283,-0.318L0.173,-0.318L0.173,0L0.079,0ZM0.173,-0.4L0.377,-0.4C0.42,-0.4 0.454,-0.404 0.479,-0.413C0.503,-0.422 0.521,-0.437 0.534,-0.456C0.547,-0.476 0.553,-0.497 0.553,-0.521C0.553,-0.554 0.541,-0.582 0.516,-0.604C0.492,-0.626 0.453,-0.637 0.4,-0.637L0.173,-0.637L0.173,-0.4Z" style="fill-rule:nonzero;"/>
        </g>
        <g transform="matrix(15,0,0,15,58.415,18.302)">
            <path d="M0.404,-0.064C0.372,-0.036 0.34,-0.017 0.31,-0.005C0.28,0.006 0.248,0.012 0.213,0.012C0.156,0.012 0.113,-0.002 0.082,-0.03C0.051,-0.058 0.036,-0.093 0.036,-0.137C0.036,-0.162 0.042,-0.185 0.053,-0.206C0.065,-0.227 0.08,-0.244 0.099,-0.257C0.118,-0.27 0.139,-0.279 0.162,-0.286C0.179,-0.29 0.205,-0.295 0.24,-0.299C0.311,-0.307 0.363,-0.317 0.397,-0.329C0.397,-0.341 0.397,-0.349 0.397,-0.352C0.397,-0.388 0.389,-0.413 0.373,-0.428C0.35,-0.448 0.317,-0.458 0.272,-0.458C0.231,-0.458 0.201,-0.45 0.181,-0.436C0.161,-0.421 0.147,-0.396 0.137,-0.359L0.051,-0.371C0.059,-0.407 0.072,-0.437 0.09,-0.46C0.108,-0.482 0.134,-0.5 0.167,-0.512C0.201,-0.524 0.241,-0.53 0.285,-0.53C0.329,-0.53 0.365,-0.525 0.393,-0.515C0.421,-0.504 0.441,-0.491 0.454,-0.475C0.467,-0.46 0.476,-0.44 0.481,-0.416C0.484,-0.401 0.486,-0.374 0.486,-0.334L0.486,-0.217C0.486,-0.136 0.488,-0.084 0.491,-0.062C0.495,-0.041 0.503,-0.02 0.514,0L0.422,0C0.413,-0.018 0.407,-0.04 0.404,-0.064ZM0.397,-0.26C0.365,-0.247 0.317,-0.236 0.253,-0.227C0.217,-0.222 0.192,-0.216 0.177,-0.209C0.162,-0.203 0.15,-0.193 0.142,-0.181C0.134,-0.168 0.13,-0.154 0.13,-0.139C0.13,-0.116 0.139,-0.096 0.156,-0.081C0.174,-0.065 0.2,-0.057 0.234,-0.057C0.268,-0.057 0.298,-0.065 0.325,-0.079C0.351,-0.094 0.37,-0.114 0.383,-0.14C0.392,-0.16 0.397,-0.189 0.397,-0.228L0.397,-0.26Z" style="fill-rule:nonzero;"/>
        </g>
        <g transform="matrix(15,0,0,15,66.7573,18.302)">
            <path d="M0.258,-0.079L0.271,-0.001C0.246,0.004 0.224,0.007 0.204,0.007C0.172,0.007 0.147,0.002 0.13,-0.008C0.112,-0.018 0.1,-0.032 0.093,-0.048C0.086,-0.065 0.082,-0.099 0.082,-0.152L0.082,-0.45L0.018,-0.45L0.018,-0.519L0.082,-0.519L0.082,-0.647L0.169,-0.7L0.169,-0.519L0.258,-0.519L0.258,-0.45L0.169,-0.45L0.169,-0.147C0.169,-0.122 0.171,-0.106 0.174,-0.099C0.177,-0.091 0.182,-0.086 0.189,-0.082C0.196,-0.077 0.206,-0.075 0.219,-0.075C0.229,-0.075 0.242,-0.076 0.258,-0.079Z" style="fill-rule:nonzero;"/>
        </g>
        <g transform="matrix(15,0,0,15,70.9248,18.302)">
            <path d="M0.421,-0.167L0.512,-0.156C0.497,-0.103 0.471,-0.062 0.432,-0.032C0.393,-0.003 0.344,0.012 0.284,0.012C0.208,0.012 0.148,-0.012 0.103,-0.058C0.059,-0.105 0.037,-0.171 0.037,-0.255C0.037,-0.342 0.059,-0.41 0.104,-0.458C0.149,-0.506 0.207,-0.53 0.279,-0.53C0.348,-0.53 0.405,-0.507 0.449,-0.459C0.493,-0.412 0.515,-0.346 0.515,-0.26C0.515,-0.255 0.514,-0.247 0.514,-0.237L0.127,-0.237C0.131,-0.18 0.147,-0.136 0.176,-0.106C0.205,-0.076 0.241,-0.061 0.284,-0.061C0.316,-0.061 0.344,-0.069 0.367,-0.086C0.389,-0.103 0.408,-0.13 0.421,-0.167ZM0.132,-0.309L0.422,-0.309C0.418,-0.353 0.407,-0.385 0.389,-0.407C0.361,-0.441 0.324,-0.458 0.28,-0.458C0.239,-0.458 0.205,-0.444 0.178,-0.417C0.15,-0.39 0.135,-0.354 0.132,-0.309Z" style="fill-rule:nonzero;"/>
        </g>
    </g>
    <g transform="matrix(0,-7.87402e-05,7.87402e-05,0,29.0833,115.151)">
        <path d="M288235,0C447423,0 576470,129047 576470,288235C576470,447423 447423,576470 288235,576470C129047,576470 0,447423 0,288235C0,129047 129047,0 288235,0Z" style="fill:rgb(146,146,146);"/>
    </g>
    <g transform="matrix(1,0,0,1,-256,-217.214)">
        <path d="M285.812,304.398L283.409,303.662L280.999,302.954L281.014,302.959L278.665,302.234L278.708,302.248L276.475,301.458L276.551,301.488L274.495,300.586L274.61,300.645L272.792,299.583L272.904,299.657L272.103,299.053L272.188,299.123L271.47,298.461L271.558,298.552L270.931,297.827L271.016,297.939L270.487,297.145L270.552,297.256L270.1,296.375L270.14,296.462L269.741,295.487L269.77,295.566L269.427,294.508L269.448,294.58L269.163,293.452L269.184,293.551L268.801,291.129L268.813,291.253L268.697,288.687L268.695,288.812L268.866,286.196L268.849,286.329L269.329,283.756L269.303,283.865L269.666,282.624L269.639,282.703L270.087,281.507L270.051,281.592L270.587,280.454L270.54,280.543L271.166,279.474L271.095,279.581L271.834,278.596L271.744,278.702L272.606,277.808L272.515,277.893L273.483,277.089L273.394,277.156L274.455,276.44L274.37,276.492L275.507,275.863L275.427,275.903L276.624,275.359L276.514,275.402L279.027,274.566L278.891,274.602L281.459,274.091L281.328,274.109L283.827,273.912L283.723,273.915L284.908,273.931L284.833,273.927L285.953,274.017L285.869,274.007L286.91,274.17L286.813,274.15L287.759,274.384L287.597,274.331L288.487,274.701L288.32,274.615L289.202,275.17L289.086,275.087L289.956,275.802L289.876,275.73L290.728,276.581L290.672,276.52L291.502,277.482L291.461,277.432L292.266,278.48L292.224,278.421L293.736,280.675L293.692,280.604L295.126,283.128L297.082,282.016L295.628,279.456L294.072,277.138L293.226,276.036L292.348,275.018L291.428,274.1L290.461,273.304L289.439,272.66L288.382,272.221L287.306,271.954L286.175,271.777L284.975,271.681L283.701,271.664L281.085,271.871L278.383,272.409L275.748,273.286L274.456,273.872L273.237,274.547L272.089,275.322L271.03,276.201L270.076,277.19L269.257,278.282L268.573,279.45L267.996,280.675L267.518,281.953L267.128,283.288L266.625,285.982L266.446,288.727L266.568,291.418L266.969,293.953L267.275,295.167L267.643,296.3L268.076,297.359L268.579,298.34L269.183,299.246L269.898,300.072L270.703,300.815L271.6,301.493L273.532,302.62L275.685,303.565L277.979,304.377L280.358,305.111L282.769,305.819L282.756,305.815L285.153,306.549L285.812,304.398ZM292.598,283.177L298.764,287.528L298.546,279.985L292.598,283.177Z" style="fill-rule:nonzero;"/>
    </g>
    <g transform="matrix(1,0,0,1,229.075,106.08)">
        <g transform="matrix(16,0,0,16,0,0)">
            <rect x="0.032" y="-0.303" width="0.27" height="0.088"/>
        </g>
        <g transform="matrix(16,0,0,16,5.32812,0)">
            <path d="M0.404,-0.064C0.372,-0.036 0.34,-0.017 0.31,-0.005C0.28,0.006 0.248,0.012 0.213,0.012C0.156,0.012 0.113,-0.002 0.082,-0.03C0.051,-0.058 0.036,-0.093 0.036,-0.137C0.036,-0.162 0.042,-0.185 0.053,-0.206C0.065,-0.227 0.08,-0.244 0.099,-0.257C0.118,-0.27 0.139,-0.279 0.162,-0.286C0.179,-0.29 0.205,-0.295 0.24,-0.299C0.311,-0.307 0.363,-0.317 0.397,-0.329L0.397,-0.352C0.397,-0.388 0.389,-0.413 0.373,-0.428C0.35,-0.448 0.317,-0.458 0.272,-0.458C0.231,-0.458 0.201,-0.45 0.181,-0.436C0.161,-0.421 0.147,-0.396 0.137,-0.359L0.051,-0.371C0.059,-0.407 0.072,-0.437 0.09,-0.46C0.108,-0.482 0.134,-0.5 0.167,-0.512C0.201,-0.524 0.241,-0.53 0.285,-0.53C0.329,-0.53 0.365,-0.525 0.393,-0.515C0.421,-0.504 0.441,-0.491 0.454,-0.475C0.467,-0.46 0.476,-0.44 0.481,-0.416C0.484,-0.401 0.486,-0.374 0.486,-0.334L0.486,-0.217C0.486,-0.136 0.488,-0.084 0.491,-0.062C0.495,-0.041 0.503,-0.02 0.514,0L0.422,0C0.413,-0.018 0.407,-0.04 0.404,-0.064ZM0.397,-0.26C0.365,-0.247 0.317,-0.236 0.253,-0.227C0.217,-0.222 0.192,-0.216 0.177,-0.209C0.162,-0.203 0.15,-0.193 0.142,-0.181C0.134,-0.168 0.13,-0.154 0.13,-0.139C0.13,-0.116 0.139,-0.096 0.156,-0.081C0.174,-0.065 0.2,-0.057 0.234,-0.057C0.268,-0.057 0.298,-0.065 0.325,-0.079C0.351,-0.094 0.37,-0.114 0.383,-0.14C0.392,-0.16 0.397,-0.189 0.397,-0.228L0.397,-0.26Z" style="fill-rule:nonzero;"/>
        </g>
        <g transform="matrix(16,0,0,16,14.2266,0)">
            <path d="M0.066,0.199L0.066,-0.519L0.146,-0.519L0.146,-0.451C0.165,-0.478 0.186,-0.497 0.21,-0.51C0.234,-0.524 0.263,-0.53 0.296,-0.53C0.341,-0.53 0.38,-0.519 0.414,-0.496C0.447,-0.473 0.473,-0.441 0.49,-0.4C0.507,-0.358 0.516,-0.313 0.516,-0.263C0.516,-0.21 0.507,-0.162 0.488,-0.12C0.469,-0.077 0.441,-0.045 0.405,-0.022C0.368,0 0.33,0.012 0.29,0.012C0.261,0.012 0.234,0.006 0.211,-0.007C0.188,-0.019 0.169,-0.035 0.154,-0.054L0.154,0.199L0.066,0.199ZM0.146,-0.256C0.146,-0.19 0.159,-0.14 0.186,-0.108C0.213,-0.076 0.246,-0.061 0.284,-0.061C0.323,-0.061 0.357,-0.077 0.385,-0.11C0.412,-0.143 0.426,-0.194 0.426,-0.264C0.426,-0.33 0.413,-0.379 0.385,-0.412C0.358,-0.445 0.326,-0.461 0.288,-0.461C0.251,-0.461 0.218,-0.444 0.189,-0.409C0.16,-0.374 0.146,-0.323 0.146,-0.256Z" style="fill-rule:nonzero;"/>
        </g>
        <g transform="matrix(16,0,0,16,23.125,0)">
            <path d="M0.033,-0.259C0.033,-0.355 0.06,-0.426 0.113,-0.473C0.158,-0.511 0.212,-0.53 0.276,-0.53C0.348,-0.53 0.406,-0.507 0.451,-0.46C0.496,-0.413 0.519,-0.349 0.519,-0.267C0.519,-0.2 0.509,-0.147 0.489,-0.109C0.469,-0.071 0.44,-0.041 0.402,-0.02C0.363,0.001 0.322,0.012 0.276,0.012C0.204,0.012 0.145,-0.012 0.1,-0.058C0.056,-0.105 0.033,-0.172 0.033,-0.259ZM0.124,-0.259C0.124,-0.193 0.138,-0.143 0.167,-0.11C0.196,-0.077 0.232,-0.061 0.276,-0.061C0.32,-0.061 0.356,-0.077 0.385,-0.11C0.414,-0.144 0.429,-0.194 0.429,-0.262C0.429,-0.326 0.414,-0.375 0.385,-0.408C0.356,-0.441 0.32,-0.458 0.276,-0.458C0.232,-0.458 0.196,-0.441 0.167,-0.408C0.138,-0.375 0.124,-0.326 0.124,-0.259Z" style="fill-rule:nonzero;"/>
        </g>
        <g transform="matrix(16,0,0,16,32.0234,0)">
            <path d="M0.066,0.199L0.066,-0.519L0.146,-0.519L0.146,-0.451C0.165,-0.478 0.186,-0.497 0.21,-0.51C0.234,-0.524 0.263,-0.53 0.296,-0.53C0.341,-0.53 0.38,-0.519 0.414,-0.496C0.447,-0.473 0.473,-0.441 0.49,-0.4C0.507,-0.358 0.516,-0.313 0.516,-0.263C0.516,-0.21 0.507,-0.162 0.488,-0.12C0.469,-0.077 0.441,-0.045 0.405,-0.022C0.368,0 0.33,0.012 0.29,0.012C0.261,0.012 0.234,0.006 0.211,-0.007C0.188,-0.019 0.169,-0.035 0.154,-0.054L0.154,0.199L0.066,0.199ZM0.146,-0.256C0.146,-0.19 0.159,-0.14 0.186,-0.108C0.213,-0.076 0.246,-0.061 0.284,-0.061C0.323,-0.061 0.357,-0.077 0.385,-0.11C0.412,-0.143 0.426,-0.194 0.426,-0.264C0.426,-0.33 0.413,-0.379 0.385,-0.412C0.358,-0.445 0.326,-0.461 0.288,-0.461C0.251,-0.461 0.218,-0.444 0.189,-0.409C0.16,-0.374 0.146,-0.323 0.146,-0.256Z" style="fill-rule:nonzero;"/>
        </g>
        <g transform="matrix(16,0,0,16,40.9219,0)">
            <path d="M0.087,0L0.087,-0.45L0.009,-0.45L0.009,-0.519L0.087,-0.519L0.087,-0.574C0.087,-0.609 0.09,-0.634 0.096,-0.651C0.105,-0.674 0.12,-0.693 0.141,-0.707C0.162,-0.721 0.192,-0.728 0.23,-0.728C0.255,-0.728 0.283,-0.725 0.313,-0.719L0.299,-0.643C0.281,-0.646 0.264,-0.647 0.248,-0.647C0.221,-0.647 0.202,-0.642 0.191,-0.63C0.18,-0.619 0.174,-0.598 0.174,-0.566L0.174,-0.519L0.275,-0.519L0.275,-0.45L0.174,-0.45L0.174,0L0.087,0Z" style="fill-rule:nonzero;"/>
        </g>
        <g transform="matrix(16,0,0,16,45.3672,0)">
            <path d="M0.065,0L0.065,-0.519L0.144,-0.519L0.144,-0.44C0.164,-0.477 0.183,-0.501 0.2,-0.513C0.217,-0.524 0.236,-0.53 0.256,-0.53C0.286,-0.53 0.316,-0.521 0.347,-0.502L0.316,-0.42C0.295,-0.433 0.273,-0.439 0.252,-0.439C0.233,-0.439 0.215,-0.434 0.2,-0.422C0.185,-0.411 0.174,-0.395 0.167,-0.374C0.158,-0.343 0.153,-0.309 0.153,-0.271L0.153,0L0.065,0Z" style="fill-rule:nonzero;"/>
        </g>
        <g transform="matrix(16,0,0,16,50.6953,0)">
            <path d="M0.404,-0.064C0.372,-0.036 0.34,-0.017 0.31,-0.005C0.28,0.006 0.248,0.012 0.213,0.012C0.156,0.012 0.113,-0.002 0.082,-0.03C0.051,-0.058 0.036,-0.093 0.036,-0.137C0.036,-0.162 0.042,-0.185 0.053,-0.206C0.065,-0.227 0.08,-0.244 0.099,-0.257C0.118,-0.27 0.139,-0.279 0.162,-0.286C0.179,-0.29 0.205,-0.295 0.24,-0.299C0.311,-0.307 0.363,-0.317 0.397,-0.329L0.397,-0.352C0.397,-0.388 0.389,-0.413 0.373,-0.428C0.35,-0.448 0.317,-0.458 0.272,-0.458C0.231,-0.458 0.201,-0.45 0.181,-0.436C0.161,-0.421 0.147,-0.396 0.137,-0.359L0.051,-0.371C0.059,-0.407 0.072,-0.437 0.09,-0.46C0.108,-0.482 0.134,-0.5 0.167,-0.512C0.201,-0.524 0.241,-0.53 0.285,-0.53C0.329,-0.53 0.365,-0.525 0.393,-0.515C0.421,-0.504 0.441,-0.491 0.454,-0.475C0.467,-0.46 0.476,-0.44 0.481,-0.416C0.484,-0.401 0.486,-0.374 0.486,-0.334L0.486,-0.217C0.486,-0.136 0.488,-0.084 0.491,-0.062C0.495,-0.041 0.503,-0.02 0.514,0L0.422,0C0.413,-0.018 0.407,-0.04 0.404,-0.064ZM0.397,-0.26C0.365,-0.247 0.317,-0.236 0.253,-0.227C0.217,-0.222 0.192,-0.216 0.177,-0.209C0.162,-0.203 0.15,-0.193 0.142,-0.181C0.134,-0.168 0.13,-0.154 0.13,-0.139C0.13,-0.116 0.139,-0.096 0.156,-0.081C0.174,-0.065 0.2,-0.057 0.234,-0.057C0.268,-0.057 0.298,-0.065 0.325,-0.079C0.351,-0.094 0.37,-0.114 0.383,-0.14C0.392,-0.16 0.397,-0.189 0.397,-0.228L0.397,-0.26Z" style="fill-rule:nonzero;"/>
        </g>
        <g transform="matrix(16,0,0,16,59.5938,0)">
            <path d="M0.404,-0.19L0.491,-0.179C0.481,-0.119 0.457,-0.073 0.418,-0.039C0.379,-0.005 0.332,0.012 0.275,0.012C0.204,0.012 0.147,-0.011 0.104,-0.058C0.061,-0.104 0.039,-0.171 0.039,-0.257C0.039,-0.313 0.048,-0.362 0.067,-0.404C0.085,-0.446 0.114,-0.478 0.152,-0.499C0.19,-0.52 0.231,-0.53 0.275,-0.53C0.332,-0.53 0.378,-0.516 0.414,-0.488C0.449,-0.459 0.472,-0.419 0.482,-0.366L0.397,-0.353C0.389,-0.388 0.374,-0.414 0.354,-0.432C0.333,-0.449 0.308,-0.458 0.279,-0.458C0.235,-0.458 0.199,-0.442 0.171,-0.41C0.143,-0.379 0.129,-0.328 0.129,-0.26C0.129,-0.19 0.143,-0.139 0.169,-0.108C0.196,-0.076 0.231,-0.061 0.274,-0.061C0.308,-0.061 0.337,-0.071 0.36,-0.092C0.383,-0.113 0.398,-0.146 0.404,-0.19Z" style="fill-rule:nonzero;"/>
        </g>
    </g>
    <g transform="matrix(1,0,0,1,248.429,56.88)">
        <g transform="matrix(16,0,0,16,0,0)">
            <path d="M-0.001,0L0.273,-0.716L0.375,-0.716L0.668,0L0.561,0L0.477,-0.217L0.178,-0.217L0.099,0L-0.001,0ZM0.205,-0.294L0.448,-0.294L0.373,-0.492C0.35,-0.552 0.333,-0.602 0.322,-0.641C0.313,-0.595 0.3,-0.549 0.284,-0.504L0.205,-0.294Z" style="fill-rule:nonzero;"/>
        </g>
    </g>
    <g transform="matrix(1,0,0,1,-255,-180)">
        <g transform="matrix(16,0,0,16,636.245,236.88)">
            <path d="M0.077,0L0.077,-0.716L0.324,-0.716C0.379,-0.716 0.422,-0.712 0.451,-0.706C0.492,-0.696 0.527,-0.679 0.556,-0.654C0.594,-0.622 0.622,-0.582 0.641,-0.532C0.66,-0.482 0.669,-0.426 0.669,-0.362C0.669,-0.307 0.663,-0.259 0.65,-0.217C0.637,-0.175 0.621,-0.141 0.601,-0.113C0.581,-0.086 0.559,-0.064 0.536,-0.048C0.512,-0.032 0.484,-0.02 0.45,-0.012C0.417,-0.004 0.379,0 0.335,0L0.077,0ZM0.172,-0.084L0.325,-0.084C0.372,-0.084 0.409,-0.089 0.436,-0.098C0.463,-0.106 0.484,-0.119 0.5,-0.135C0.522,-0.157 0.54,-0.187 0.552,-0.225C0.565,-0.263 0.571,-0.309 0.571,-0.363C0.571,-0.438 0.559,-0.496 0.534,-0.536C0.51,-0.576 0.48,-0.603 0.445,-0.617C0.419,-0.626 0.379,-0.631 0.322,-0.631L0.172,-0.631L0.172,-0.084Z" style="fill-rule:nonzero;"/>
        </g>
        <g transform="matrix(11,0,0,11,647.799,239.76)">
            <path d="M-0.001,0L0.273,-0.716L0.375,-0.716L0.668,0L0.561,0L0.477,-0.217L0.178,-0.217L0.099,0L-0.001,0ZM0.205,-0.294L0.448,-0.294L0.373,-0.492C0.35,-0.552 0.333,-0.602 0.322,-0.641C0.313,-0.595 0.3,-0.549 0.284,-0.504L0.205,-0.294Z" style="fill-rule:nonzero;"/>
        </g>
    </g>
    <g transform="matrix(1,0,0,1,219.634,19.44)">
        <g transform="matrix(16,0,0,16,0,0)">
            <path d="M0.404,-0.064C0.372,-0.036 0.34,-0.017 0.31,-0.005C0.28,0.006 0.248,0.012 0.213,0.012C0.156,0.012 0.113,-0.002 0.082,-0.03C0.051,-0.058 0.036,-0.093 0.036,-0.137C0.036,-0.162 0.042,-0.185 0.053,-0.206C0.065,-0.227 0.08,-0.244 0.099,-0.257C0.118,-0.27 0.139,-0.279 0.162,-0.286C0.179,-0.29 0.205,-0.295 0.24,-0.299C0.311,-0.307 0.363,-0.317 0.397,-0.329L0.397,-0.352C0.397,-0.388 0.389,-0.413 0.373,-0.428C0.35,-0.448 0.317,-0.458 0.272,-0.458C0.231,-0.458 0.201,-0.45 0.181,-0.436C0.161,-0.421 0.147,-0.396 0.137,-0.359L0.051,-0.371C0.059,-0.407 0.072,-0.437 0.09,-0.46C0.108,-0.482 0.134,-0.5 0.167,-0.512C0.201,-0.524 0.241,-0.53 0.285,-0.53C0.329,-0.53 0.365,-0.525 0.393,-0.515C0.421,-0.504 0.441,-0.491 0.454,-0.475C0.467,-0.46 0.476,-0.44 0.481,-0.416C0.484,-0.401 0.486,-0.374 0.486,-0.334L0.486,-0.217C0.486,-0.136 0.488,-0.084 0.491,-0.062C0.495,-0.041 0.503,-0.02 0.514,0L0.422,0C0.413,-0.018 0.407,-0.04 0.404,-0.064ZM0.397,-0.26C0.365,-0.247 0.317,-0.236 0.253,-0.227C0.217,-0.222 0.192,-0.216 0.177,-0.209C0.162,-0.203 0.15,-0.193 0.142,-0.181C0.134,-0.168 0.13,-0.154 0.13,-0.139C0.13,-0.116 0.139,-0.096 0.156,-0.081C0.174,-0.065 0.2,-0.057 0.234,-0.057C0.268,-0.057 0.298,-0.065 0.325,-0.079C0.351,-0.094 0.37,-0.114 0.383,-0.14C0.392,-0.16 0.397,-0.189 0.397,-0.228L0.397,-0.26Z" style="fill-rule:nonzero;"/>
        </g>
        <g transform="matrix(16,0,0,16,8.89844,0)">
            <path d="M0.066,0.199L0.066,-0.519L0.146,-0.519L0.146,-0.451C0.165,-0.478 0.186,-0.497 0.21,-0.51C0.234,-0.524 0.263,-0.53 0.296,-0.53C0.341,-0.53 0.38,-0.519 0.414,-0.496C0.447,-0.473 0.473,-0.441 0.49,-0.4C0.507,-0.358 0.516,-0.313 0.516,-0.263C0.516,-0.21 0.507,-0.162 0.488,-0.12C0.469,-0.077 0.441,-0.045 0.405,-0.022C0.368,0 0.33,0.012 0.29,0.012C0.261,0.012 0.234,0.006 0.211,-0.007C0.188,-0.019 0.169,-0.035 0.154,-0.054L0.154,0.199L0.066,0.199ZM0.146,-0.256C0.146,-0.19 0.159,-0.14 0.186,-0.108C0.213,-0.076 0.246,-0.061 0.284,-0.061C0.323,-0.061 0.357,-0.077 0.385,-0.11C0.412,-0.143 0.426,-0.194 0.426,-0.264C0.426,-0.33 0.413,-0.379 0.385,-0.412C0.358,-0.445 0.326,-0.461 0.288,-0.461C0.251,-0.461 0.218,-0.444 0.189,-0.409C0.16,-0.374 0.146,-0.323 0.146,-0.256Z" style="fill-rule:nonzero;"/>
        </g>
        <g transform="matrix(16,0,0,16,17.7969,0)">
            <path d="M0.033,-0.259C0.033,-0.355 0.06,-0.426 0.113,-0.473C0.158,-0.511 0.212,-0.53 0.276,-0.53C0.348,-0.53 0.406,-0.507 0.451,-0.46C0.496,-0.413 0.519,-0.349 0.519,-0.267C0.519,-0.2 0.509,-0.147 0.489,-0.109C0.469,-0.071 0.44,-0.041 0.402,-0.02C0.363,0.001 0.322,0.012 0.276,0.012C0.204,0.012 0.145,-0.012 0.1,-0.058C0.056,-0.105 0.033,-0.172 0.033,-0.259ZM0.124,-0.259C0.124,-0.193 0.138,-0.143 0.167,-0.11C0.196,-0.077 0.232,-0.061 0.276,-0.061C0.32,-0.061 0.356,-0.077 0.385,-0.11C0.414,-0.144 0.429,-0.194 0.429,-0.262C0.429,-0.326 0.414,-0.375 0.385,-0.408C0.356,-0.441 0.32,-0.458 0.276,-0.458C0.232,-0.458 0.196,-0.441 0.167,-0.408C0.138,-0.375 0.124,-0.326 0.124,-0.259Z" style="fill-rule:nonzero;"/>
        </g>
        <g transform="matrix(16,0,0,16,26.6953,0)">
            <path d="M0.066,0.199L0.066,-0.519L0.146,-0.519L0.146,-0.451C0.165,-0.478 0.186,-0.497 0.21,-0.51C0.234,-0.524 0.263,-0.53 0.296,-0.53C0.341,-0.53 0.38,-0.519 0.414,-0.496C0.447,-0.473 0.473,-0.441 0.49,-0.4C0.507,-0.358 0.516,-0.313 0.516,-0.263C0.516,-0.21 0.507,-0.162 0.488,-0.12C0.469,-0.077 0.441,-0.045 0.405,-0.022C0.368,0 0.33,0.012 0.29,0.012C0.261,0.012 0.234,0.006 0.211,-0.007C0.188,-0.019 0.169,-0.035 0.154,-0.054L0.154,0.199L0.066,0.199ZM0.146,-0.256C0.146,-0.19 0.159,-0.14 0.186,-0.108C0.213,-0.076 0.246,-0.061 0.284,-0.061C0.323,-0.061 0.357,-0.077 0.385,-0.11C0.412,-0.143 0.426,-0.194 0.426,-0.264C0.426,-0.33 0.413,-0.379 0.385,-0.412C0.358,-0.445 0.326,-0.461 0.288,-0.461C0.251,-0.461 0.218,-0.444 0.189,-0.409C0.16,-0.374 0.146,-0.323 0.146,-0.256Z" style="fill-rule:nonzero;"/>
        </g>
        <g transform="matrix(16,0,0,16,35.5938,0)">
            <path d="M0.087,0L0.087,-0.45L0.009,-0.45L0.009,-0.519L0.087,-0.519L0.087,-0.574C0.087,-0.609 0.09,-0.634 0.096,-0.651C0.105,-0.674 0.12,-0.693 0.141,-0.707C0.162,-0.721 0.192,-0.728 0.23,-0.728C0.255,-0.728 0.283,-0.725 0.313,-0.719L0.299,-0.643C0.281,-0.646 0.264,-0.647 0.248,-0.647C0.221,-0.647 0.202,-0.642 0.191,-0.63C0.18,-0.619 0.174,-0.598 0.174,-0.566L0.174,-0.519L0.275,-0.519L0.275,-0.45L0.174,-0.45L0.174,0L0.087,0Z" style="fill-rule:nonzero;"/>
        </g>
        <g transform="matrix(16,0,0,16,40.0391,0)">
            <path d="M0.065,0L0.065,-0.519L0.144,-0.519L0.144,-0.44C0.164,-0.477 0.183,-0.501 0.2,-0.513C0.217,-0.524 0.236,-0.53 0.256,-0.53C0.286,-0.53 0.316,-0.521 0.347,-0.502L0.316,-0.42C0.295,-0.433 0.273,-0.439 0.252,-0.439C0.233,-0.439 0.215,-0.434 0.2,-0.422C0.185,-0.411 0.174,-0.395 0.167,-0.374C0.158,-0.343 0.153,-0.309 0.153,-0.271L0.153,0L0.065,0Z" style="fill-rule:nonzero;"/>
        </g>
        <g transform="matrix(16,0,0,16,45.3672,0)">
            <path d="M0.404,-0.064C0.372,-0.036 0.34,-0.017 0.31,-0.005C0.28,0.006 0.248,0.012 0.213,0.012C0.156,0.012 0.113,-0.002 0.082,-0.03C0.051,-0.058 0.036,-0.093 0.036,-0.137C0.036,-0.162 0.042,-0.185 0.053,-0.206C0.065,-0.227 0.08,-0.244 0.099,-0.257C0.118,-0.27 0.139,-0.279 0.162,-0.286C0.179,-0.29 0.205,-0.295 0.24,-0.299C0.311,-0.307 0.363,-0.317 0.397,-0.329L0.397,-0.352C0.397,-0.388 0.389,-0.413 0.373,-0.428C0.35,-0.448 0.317,-0.458 0.272,-0.458C0.231,-0.458 0.201,-0.45 0.181,-0.436C0.161,-0.421 0.147,-0.396 0.137,-0.359L0.051,-0.371C0.059,-0.407 0.072,-0.437 0.09,-0.46C0.108,-0.482 0.134,-0.5 0.167,-0.512C0.201,-0.524 0.241,-0.53 0.285,-0.53C0.329,-0.53 0.365,-0.525 0.393,-0.515C0.421,-0.504 0.441,-0.491 0.454,-0.475C0.467,-0.46 0.476,-0.44 0.481,-0.416C0.484,-0.401 0.486,-0.374 0.486,-0.334L0.486,-0.217C0.486,-0.136 0.488,-0.084 0.491,-0.062C0.495,-0.041 0.503,-0.02 0.514,0L0.422,0C0.413,-0.018 0.407,-0.04 0.404,-0.064ZM0.397,-0.26C0.365,-0.247 0.317,-0.236 0.253,-0.227C0.217,-0.222 0.192,-0.216 0.177,-0.209C0.162,-0.203 0.15,-0.193 0.142,-0.181C0.134,-0.168 0.13,-0.154 0.13,-0.139C0.13,-0.116 0.139,-0.096 0.156,-0.081C0.174,-0.065 0.2,-0.057 0.234,-0.057C0.268,-0.057 0.298,-0.065 0.325,-0.079C0.351,-0.094 0.37,-0.114 0.383,-0.14C0.392,-0.16 0.397,-0.189 0.397,-0.228L0.397,-0.26Z" style="fill-rule:nonzero;"/>
        </g>
        <g transform="matrix(16,0,0,16,54.2656,0)">
            <path d="M0.404,-0.19L0.491,-0.179C0.481,-0.119 0.457,-0.073 0.418,-0.039C0.379,-0.005 0.332,0.012 0.275,0.012C0.204,0.012 0.147,-0.011 0.104,-0.058C0.061,-0.104 0.039,-0.171 0.039,-0.257C0.039,-0.313 0.048,-0.362 0.067,-0.404C0.085,-0.446 0.114,-0.478 0.152,-0.499C0.19,-0.52 0.231,-0.53 0.275,-0.53C0.332,-0.53 0.378,-0.516 0.414,-0.488C0.449,-0.459 0.472,-0.419 0.482,-0.366L0.397,-0.353C0.389,-0.388 0.374,-0.414 0.354,-0.432C0.333,-0.449 0.308,-0.458 0.279,-0.458C0.235,-0.458 0.199,-0.442 0.171,-0.41C0.143,-0.379 0.129,-0.328 0.129,-0.26C0.129,-0.19 0.143,-0.139 0.169,-0.108C0.196,-0.076 0.231,-0.061 0.274,-0.061C0.308,-0.061 0.337,-0.071 0.36,-0.092C0.383,-0.113 0.398,-0.146 0.404,-0.19Z" style="fill-rule:nonzero;"/>
        </g>
    </g>
    <g transform="matrix(16,0,0,16,316.531,45.84)">
        <path d="M0.402,0L0.402,-0.065C0.369,-0.014 0.321,0.012 0.257,0.012C0.216,0.012 0.178,0 0.143,-0.022C0.109,-0.045 0.082,-0.077 0.063,-0.118C0.044,-0.159 0.034,-0.206 0.034,-0.259C0.034,-0.311 0.043,-0.358 0.06,-0.4C0.077,-0.442 0.103,-0.474 0.138,-0.497C0.172,-0.519 0.211,-0.53 0.253,-0.53C0.285,-0.53 0.313,-0.524 0.337,-0.51C0.361,-0.497 0.381,-0.48 0.396,-0.459L0.396,-0.716L0.484,-0.716L0.484,0L0.402,0ZM0.125,-0.259C0.125,-0.192 0.139,-0.143 0.167,-0.11C0.194,-0.077 0.228,-0.061 0.266,-0.061C0.304,-0.061 0.337,-0.076 0.364,-0.108C0.39,-0.139 0.404,-0.187 0.404,-0.251C0.404,-0.322 0.39,-0.375 0.363,-0.408C0.335,-0.441 0.302,-0.458 0.262,-0.458C0.223,-0.458 0.19,-0.442 0.164,-0.41C0.138,-0.378 0.125,-0.327 0.125,-0.259Z" style="fill-rule:nonzero;"/>
    </g>
    <g transform="matrix(16,0,0,16,47.342,98.88)">
        <path d="M0.073,0L0.073,-0.716L0.168,-0.716L0.168,-0.084L0.521,-0.084L0.521,0L0.073,0Z" style="fill-rule:nonzero;"/>
    </g>
    <g transform="matrix(1,0,0,1,-255,-180)">
        <g transform="matrix(1,0,0,1,501.264,321.12)">
            <g transform="matrix(16,0,0,16,0,0)">
                <path d="M0.077,0L0.077,-0.716L0.324,-0.716C0.379,-0.716 0.422,-0.712 0.451,-0.706C0.492,-0.696 0.527,-0.679 0.556,-0.654C0.594,-0.622 0.622,-0.582 0.641,-0.532C0.66,-0.482 0.669,-0.426 0.669,-0.362C0.669,-0.307 0.663,-0.259 0.65,-0.217C0.637,-0.175 0.621,-0.141 0.601,-0.113C0.581,-0.086 0.559,-0.064 0.536,-0.048C0.512,-0.032 0.484,-0.02 0.45,-0.012C0.417,-0.004 0.379,0 0.335,0L0.077,0ZM0.172,-0.084L0.325,-0.084C0.372,-0.084 0.409,-0.089 0.436,-0.098C0.463,-0.106 0.484,-0.119 0.5,-0.135C0.522,-0.157 0.54,-0.187 0.552,-0.225C0.565,-0.263 0.571,-0.309 0.571,-0.363C0.571,-0.438 0.559,-0.496 0.534,-0.536C0.51,-0.576 0.48,-0.603 0.445,-0.617C0.419,-0.626 0.379,-0.631 0.322,-0.631L0.172,-0.631L0.172,-0.084Z" style="fill-rule:nonzero;"/>
            </g>
        </g>
        <g transform="matrix(1,0,0,1,512.818,324)">
            <g transform="matrix(11,0,0,11,0,0)">
                <path d="M0.076,0L0.076,-0.716L0.173,-0.716L0.549,-0.154L0.549,-0.716L0.64,-0.716L0.64,0L0.543,0L0.167,-0.563L0.167,0L0.076,0Z" style="fill-rule:nonzero;"/>
            </g>
        </g>
    </g>
</svg>
