<?xml version="1.0" encoding="UTF-8" standalone="no"?>
<!DOCTYPE svg PUBLIC "-//W3C//DTD SVG 1.1//EN" "http://www.w3.org/Graphics/SVG/1.1/DTD/svg11.dtd">
<svg width="100%" height="100%" viewBox="0 0 260 180" version="1.1" xmlns="http://www.w3.org/2000/svg" xmlns:xlink="http://www.w3.org/1999/xlink" xml:space="preserve" xmlns:serif="http://www.serif.com/" style="fill-rule:evenodd;clip-rule:evenodd;stroke-linejoin:round;stroke-miterlimit:10;">
    <g>
        <g transform="matrix(1,0,0,1,-20,88.5588)">
            <path d="M78.723,52.097L153.448,52.097L153.448,55.344L78.723,55.344" style="fill:rgb(33,254,6);fill-rule:nonzero;stroke:black;stroke-width:1.44px;"/>
        </g>
        <g transform="matrix(1,0,0,1,-20,52.725)">
            <path d="M78.723,70.014L199.506,70.014L199.506,73.261L78.723,73.261" style="fill:rgb(33,254,6);fill-rule:nonzero;stroke:black;stroke-width:1.44px;"/>
        </g>
        <g transform="matrix(1,0,0,1,-20,16.8912)">
            <path d="M78.723,87.931L199.506,87.931L199.506,91.178L78.723,91.178" style="fill:rgb(33,254,6);fill-rule:nonzero;stroke:black;stroke-width:1.44px;"/>
        </g>
        <g transform="matrix(1,0,0,1,-20,-18.9425)">
            <path d="M78.723,105.848L193.869,105.848L193.869,109.095L78.723,109.095" style="fill:rgb(33,254,6);fill-rule:nonzero;stroke:black;stroke-width:1.44px;"/>
        </g>
        <g transform="matrix(1,0,0,1,-20,-54.7763)">
            <path d="M78.723,123.765L136.296,123.765L136.296,127.012L78.723,127.012" style="fill:rgb(33,254,6);fill-rule:nonzero;stroke:black;stroke-width:1.44px;"/>
        </g>
        <g transform="matrix(1,0,0,1,-20,-90.6101)">
            <path d="M78.723,141.682L170.84,141.682L170.84,144.928L78.723,144.928" style="fill:rgb(33,254,6);fill-rule:nonzero;stroke:black;stroke-width:1.44px;"/>
        </g>
        <g transform="matrix(1,0,0,1,-20,-126.444)">
            <path d="M78.723,159.599L193.869,159.599L193.869,162.845L78.723,162.845" style="fill:rgb(33,254,6);fill-rule:nonzero;stroke:black;stroke-width:1.44px;"/>
        </g>
        <g transform="matrix(1,0,0,1,-20,-162.278)">
            <path d="M78.723,177.515L193.869,177.515L193.869,180.762L78.723,180.762" style="fill:rgb(33,254,6);fill-rule:nonzero;stroke:black;stroke-width:1.44px;"/>
        </g>
    </g>
    <g>
        <g transform="matrix(1,0,0,1,-20,78.939)">
            <path d="M78.723,56.907L179.476,56.907L179.476,60.154L78.723,60.154" style="fill:rgb(0,0,254);fill-rule:nonzero;stroke:black;stroke-width:1.44px;"/>
        </g>
        <g transform="matrix(1,0,0,1,-20,43.1052)">
            <path d="M78.723,74.824L205.383,74.824L205.383,78.071L78.723,78.071" style="fill:rgb(0,0,254);fill-rule:nonzero;stroke:black;stroke-width:1.44px;"/>
        </g>
        <g transform="matrix(1,0,0,1,-20,7.2714)">
            <path d="M78.723,92.741L202.505,92.741L202.505,95.988L78.723,95.988" style="fill:rgb(0,0,254);fill-rule:nonzero;stroke:black;stroke-width:1.44px;"/>
        </g>
        <g transform="matrix(1,0,0,1,-20,-28.5623)">
            <path d="M78.723,110.658L193.869,110.658L193.869,113.905L78.723,113.905" style="fill:rgb(0,0,254);fill-rule:nonzero;stroke:black;stroke-width:1.44px;"/>
        </g>
        <g transform="matrix(1,0,0,1,-20,-64.3961)">
            <path d="M78.723,128.575L139.055,128.575L139.055,131.821L78.723,131.821" style="fill:rgb(0,0,254);fill-rule:nonzero;stroke:black;stroke-width:1.44px;"/>
        </g>
        <g transform="matrix(1,0,0,1,-20,-100.23)">
            <path d="M78.723,146.492L173.598,146.492L173.598,149.738L78.723,149.738" style="fill:rgb(0,0,254);fill-rule:nonzero;stroke:black;stroke-width:1.44px;"/>
        </g>
        <g transform="matrix(1,0,0,1,-20,-136.064)">
            <path d="M78.723,164.409L193.869,164.409L193.869,167.655L78.723,167.655" style="fill:rgb(0,0,254);fill-rule:nonzero;stroke:black;stroke-width:1.44px;"/>
        </g>
        <g transform="matrix(1,0,0,1,-20,-171.898)">
            <path d="M78.723,182.325L193.869,182.325L193.869,185.572L78.723,185.572" style="fill:rgb(0,0,254);fill-rule:nonzero;stroke:black;stroke-width:1.44px;"/>
        </g>
    </g>
    <g>
        <g transform="matrix(1,0,0,1,-20,69.3192)">
            <path d="M78.723,61.717L170.84,61.717L170.84,64.964L78.723,64.964" style="fill:white;fill-rule:nonzero;stroke:black;stroke-width:1.44px;"/>
        </g>
        <g transform="matrix(1,0,0,1,-20,33.4854)">
            <path d="M78.723,79.634L179.476,79.634L179.476,82.881L78.723,82.881" style="fill:white;fill-rule:nonzero;stroke:black;stroke-width:1.44px;"/>
        </g>
        <g transform="matrix(1,0,0,1,-20,-2.34836)">
            <path d="M78.723,97.551L185.233,97.551L185.233,100.798L78.723,100.798" style="fill:white;fill-rule:nonzero;stroke:black;stroke-width:1.44px;"/>
        </g>
        <g transform="matrix(1,0,0,1,-20,-38.1821)">
            <path d="M78.723,115.468L193.869,115.468L193.869,118.714L78.723,118.714" style="fill:white;fill-rule:nonzero;stroke:black;stroke-width:1.44px;"/>
        </g>
        <g transform="matrix(1,0,0,1,-20,-74.0159)">
            <path d="M78.723,133.385L147.811,133.385L147.811,136.631L78.723,136.631" style="fill:white;fill-rule:nonzero;stroke:black;stroke-width:1.44px;"/>
        </g>
        <g transform="matrix(1,0,0,1,-20,-109.85)">
            <path d="M78.723,151.301L165.082,151.301L165.082,154.548L78.723,154.548" style="fill:white;fill-rule:nonzero;stroke:black;stroke-width:1.44px;"/>
        </g>
        <g transform="matrix(1,0,0,1,-20,-145.683)">
            <path d="M78.723,169.218L182.234,169.218L182.234,172.465L78.723,172.465" style="fill:white;fill-rule:nonzero;stroke:black;stroke-width:1.44px;"/>
        </g>
        <g transform="matrix(1,0,0,1,-20,-181.517)">
            <path d="M78.723,187.135L190.99,187.135L190.99,190.382L78.723,190.382" style="fill:white;fill-rule:nonzero;stroke:black;stroke-width:1.44px;"/>
        </g>
    </g>
    <g transform="matrix(0.99953,0,0,-1.00206,-106.079,604.691)">
        <path d="M164.88,457.56L308.88,457.56" style="fill:none;stroke:black;stroke-width:1.5px;stroke-linejoin:miter;"/>
    </g>
    <g transform="matrix(0,1.00206,-0.99953,0,518.367,-16.728)">
        <path d="M162.58,459.86L167.18,459.86" style="fill:none;stroke:black;stroke-width:1.5px;stroke-linecap:round;stroke-linejoin:miter;"/>
    </g>
    <g transform="matrix(0,1.00206,-0.99953,0,547.153,-45.5874)">
        <path d="M191.38,459.86L195.98,459.86" style="fill:none;stroke:black;stroke-width:1.5px;stroke-linecap:round;stroke-linejoin:miter;"/>
    </g>
    <g transform="matrix(0,1.00206,-0.99953,0,575.94,-74.4468)">
        <path d="M220.18,459.86L224.78,459.86" style="fill:none;stroke:black;stroke-width:1.5px;stroke-linecap:round;stroke-linejoin:miter;"/>
    </g>
    <g transform="matrix(0,1.00206,-0.99953,0,604.726,-103.306)">
        <path d="M248.98,459.86L253.58,459.86" style="fill:none;stroke:black;stroke-width:1.5px;stroke-linecap:round;stroke-linejoin:miter;"/>
    </g>
    <g transform="matrix(0,1.00206,-0.99953,0,633.513,-132.166)">
        <path d="M277.78,459.86L282.38,459.86" style="fill:none;stroke:black;stroke-width:1.5px;stroke-linecap:round;stroke-linejoin:miter;"/>
    </g>
    <g transform="matrix(0,1.00206,-0.99953,0,662.299,-161.025)">
        <path d="M306.58,459.86L311.18,459.86" style="fill:none;stroke:black;stroke-width:1.5px;stroke-linecap:round;stroke-linejoin:miter;"/>
    </g>
    <g transform="matrix(0,-1.00206,0.99953,0,-326.656,239.259)">
        <path d="M92.88,385.56L236.88,385.56" style="fill:none;stroke:black;stroke-width:1.5px;stroke-linejoin:miter;"/>
    </g>
    <g transform="matrix(0.99953,0,0,-1.00206,-106.079,586.895)">
        <path d="M160.28,448.68L164.88,448.68" style="fill:none;stroke:black;stroke-width:1.5px;stroke-linecap:round;stroke-linejoin:miter;"/>
    </g>
    <g transform="matrix(0.99953,0,0,-1.00206,-106.079,551.061)">
        <path d="M160.28,430.8L164.88,430.8" style="fill:none;stroke:black;stroke-width:1.5px;stroke-linecap:round;stroke-linejoin:miter;"/>
    </g>
    <g transform="matrix(0.99953,0,0,-1.00206,-106.079,515.227)">
        <path d="M160.28,412.92L164.88,412.92" style="fill:none;stroke:black;stroke-width:1.5px;stroke-linecap:round;stroke-linejoin:miter;"/>
    </g>
    <g transform="matrix(0.99953,0,0,-1.00206,-106.079,479.393)">
        <path d="M160.28,395.04L164.88,395.04" style="fill:none;stroke:black;stroke-width:1.5px;stroke-linecap:round;stroke-linejoin:miter;"/>
    </g>
    <g transform="matrix(0.99953,0,0,-1.00206,-106.079,443.56)">
        <path d="M160.28,377.16L164.88,377.16" style="fill:none;stroke:black;stroke-width:1.5px;stroke-linecap:round;stroke-linejoin:miter;"/>
    </g>
    <g transform="matrix(0.99953,0,0,-1.00206,-106.079,407.726)">
        <path d="M160.28,359.28L164.88,359.28" style="fill:none;stroke:black;stroke-width:1.5px;stroke-linecap:round;stroke-linejoin:miter;"/>
    </g>
    <g transform="matrix(0.99953,0,0,-1.00206,-106.079,371.892)">
        <path d="M160.28,341.4L164.88,341.4" style="fill:none;stroke:black;stroke-width:1.5px;stroke-linecap:round;stroke-linejoin:miter;"/>
    </g>
    <g transform="matrix(0.99953,0,0,-1.00206,-106.079,336.058)">
        <path d="M160.28,323.52L164.88,323.52" style="fill:none;stroke:black;stroke-width:1.5px;stroke-linecap:round;stroke-linejoin:miter;"/>
    </g>
    <g transform="matrix(1,0,0,1,-50,-102.755)">
        <rect x="233.17" y="144.367" width="16.872" height="10.021" style="fill:rgb(33,254,6);stroke:black;stroke-width:1.44px;stroke-linejoin:miter;"/>
    </g>
    <g transform="matrix(1,0,0,1,-50,-137.386)">
        <rect x="233.17" y="161.683" width="16.872" height="10.021" style="fill:rgb(0,0,254);stroke:black;stroke-width:1.44px;stroke-linejoin:miter;"/>
    </g>
    <g transform="matrix(1,0,0,1,-50,-173.258)">
        <rect x="233.17" y="179.119" width="16.872" height="10.021" style="fill:white;stroke:black;stroke-width:1.44px;stroke-linejoin:miter;"/>
    </g>
    <g transform="matrix(1,0,0,1,-213.007,-77.3156)">
        <text x="226.719px" y="93.468px" style="font-family:'DejaVuSans', 'DejaVu Sans', sans-serif;font-size:11px;">Contr<tspan x="256.695px 263.425px " y="93.468px 93.468px ">ol</tspan></text>
        <text x="232.525px" y="111.468px" style="font-family:'DejaVuSans', 'DejaVu Sans', sans-serif;font-size:11px;">25 nM</text>
        <text x="232.525px" y="129.468px" style="font-family:'DejaVuSans', 'DejaVu Sans', sans-serif;font-size:11px;">50 nM</text>
        <text x="225.527px" y="147.468px" style="font-family:'DejaVuSans', 'DejaVu Sans', sans-serif;font-size:11px;">100 nM</text>
        <text x="226.719px" y="165.468px" style="font-family:'DejaVuSans', 'DejaVu Sans', sans-serif;font-size:11px;">Contr<tspan x="256.695px 263.425px " y="165.468px 165.468px ">ol</tspan></text>
        <text x="232.525px" y="183.468px" style="font-family:'DejaVuSans', 'DejaVu Sans', sans-serif;font-size:11px;">10 nM</text>
        <text x="232.525px" y="201.468px" style="font-family:'DejaVuSans', 'DejaVu Sans', sans-serif;font-size:11px;">20 nM</text>
        <text x="232.525px" y="219.468px" style="font-family:'DejaVuSans', 'DejaVu Sans', sans-serif;font-size:11px;">40 nM</text>
    </g>
    <g transform="matrix(6.12323e-17,-1,1,6.12323e-17,-98.4081,307.319)">
        <text x="246.029px" y="109.556px" style="font-family:'DejaVuSans', 'DejaVu Sans', sans-serif;font-size:12px;">DO<tspan x="263.947px " y="109.556px ">X</tspan></text>
    </g>
    <g transform="matrix(6.12323e-17,-1,1,6.12323e-17,-137.777,377.534)">
        <text x="244.77px" y="149.41px" style="font-family:'DejaVuSans', 'DejaVu Sans', sans-serif;font-size:12px;">NVB</text>
    </g>
    <g transform="matrix(1,0,0,1,-28.1382,-70.9725)">
        <text x="230.519px" y="87.282px" style="font-family:'DejaVuSans', 'DejaVu Sans', sans-serif;font-size:12px;">CF<tspan x="245.589px 253.206px " y="87.282px 87.282px ">SE</tspan></text>
        <text x="230.519px" y="105.282px" style="font-family:'DejaVuSans', 'DejaVu Sans', sans-serif;font-size:12px;">Kinetic</text>
        <text x="230.519px" y="123.282px" style="font-family:'DejaVuSans', 'DejaVu Sans', sans-serif;font-size:12px;">Endpoint</text>
    </g>
    <g transform="matrix(1,0,0,1,9.12172,-23.2627)">
        <text x="45.179px" y="186.255px" style="font-family:'DejaVuSans', 'DejaVu Sans', sans-serif;font-size:12px;">0      1     2      3     4      5</text>
        <text x="88.014px" y="198.255px" style="font-family:'DejaVuSans', 'DejaVu Sans', sans-serif;font-size:12px;">Generation</text>
    </g>
</svg>
