<?xml version="1.0" encoding="UTF-8" standalone="no"?>
<!DOCTYPE svg PUBLIC "-//W3C//DTD SVG 1.1//EN" "http://www.w3.org/Graphics/SVG/1.1/DTD/svg11.dtd">
<svg width="100%" height="100%" viewBox="0 0 326 123" version="1.1" xmlns="http://www.w3.org/2000/svg" xmlns:xlink="http://www.w3.org/1999/xlink" xml:space="preserve" xmlns:serif="http://www.serif.com/" style="fill-rule:evenodd;clip-rule:evenodd;stroke-linejoin:round;stroke-miterlimit:10;">
    <g transform="matrix(1,0,0,1,-20,-31.3736)">
        <rect x="48.58" y="39.595" width="121.916" height="81.184" style="fill:white;fill-opacity:0;"/>
    </g>
    <g transform="matrix(1,0,0,1,-20,-58.6147)">
        <rect x="53.66" y="81.535" width="20.319" height="24.544" style="fill:rgb(230,230,229);stroke:black;stroke-width:1.22px;"/>
    </g>
    <g transform="matrix(0.564428,0,0,-0.561902,33.6602,51.1057)">
        <path d="M0,25.08L36,25.08" style="fill:none;fill-rule:nonzero;stroke:black;stroke-width:2.16px;stroke-linecap:round;stroke-linejoin:miter;"/>
    </g>
    <g transform="matrix(1,0,0,1,-20,13.6684)">
        <rect x="84.139" y="53.688" width="20.319" height="7.957" style="fill:rgb(230,230,229);stroke:black;stroke-width:1.22px;"/>
    </g>
    <g transform="matrix(0.564428,0,0,-0.561902,64.1393,76.1216)">
        <path d="M0,7.8L36,7.8" style="fill:none;fill-rule:nonzero;stroke:black;stroke-width:2.16px;stroke-linecap:round;stroke-linejoin:miter;"/>
    </g>
    <g transform="matrix(1,0,0,1,-20,37.8078)">
        <rect x="114.618" y="44.045" width="20.32" height="3.102" style="fill:rgb(230,230,229);stroke:black;stroke-width:1.22px;"/>
    </g>
    <g transform="matrix(0.564428,0,0,-0.561902,94.618,85.3593)">
        <path d="M0,3.12L36,3.12" style="fill:none;fill-rule:nonzero;stroke:black;stroke-width:2.16px;stroke-linecap:round;stroke-linejoin:miter;"/>
    </g>
    <g transform="matrix(1,0,0,1,-20,44.3483)">
        <rect x="145.098" y="41.618" width="20.319" height="1.416" style="fill:rgb(230,230,229);stroke:black;stroke-width:1.22px;"/>
    </g>
    <g transform="matrix(0.564428,0,0,-0.561902,125.098,87.5844)">
        <path d="M0,1.44L36,1.44" style="fill:none;fill-rule:nonzero;stroke:black;stroke-width:2.16px;stroke-linecap:round;stroke-linejoin:miter;"/>
    </g>
    <g transform="matrix(0.564428,0,0,-0.561902,-64.4826,346.172)">
        <path d="M164.88,457.56L380.88,457.56" style="fill:none;fill-rule:nonzero;stroke:black;stroke-width:2.16px;stroke-linejoin:miter;"/>
    </g>
    <g transform="matrix(0,0.561902,-0.564428,0,303.378,-17.4576)">
        <path d="M189.58,459.86L194.18,459.86" style="fill:none;fill-rule:nonzero;stroke:black;stroke-width:2.16px;stroke-linecap:round;stroke-linejoin:miter;"/>
    </g>
    <g transform="matrix(0,0.561902,-0.564428,0,333.857,-47.8003)">
        <path d="M243.58,459.86L248.18,459.86" style="fill:none;fill-rule:nonzero;stroke:black;stroke-width:2.16px;stroke-linecap:round;stroke-linejoin:miter;"/>
    </g>
    <g transform="matrix(0,0.561902,-0.564428,0,364.336,-78.143)">
        <path d="M297.58,459.86L302.18,459.86" style="fill:none;fill-rule:nonzero;stroke:black;stroke-width:2.16px;stroke-linecap:round;stroke-linejoin:miter;"/>
    </g>
    <g transform="matrix(0,0.561902,-0.564428,0,394.815,-108.486)">
        <path d="M351.58,459.86L356.18,459.86" style="fill:none;fill-rule:nonzero;stroke:black;stroke-width:2.16px;stroke-linecap:round;stroke-linejoin:miter;"/>
    </g>
    <g transform="matrix(0,-0.561902,0.564428,0,-189.074,141.291)">
        <path d="M92.94,385.62L236.82,385.62" style="fill:none;fill-rule:nonzero;stroke:black;stroke-width:2.16px;stroke-linejoin:miter;"/>
    </g>
    <g transform="matrix(0.564428,0,0,-0.561902,-64.4826,346.172)">
        <path d="M160.28,457.56L164.88,457.56" style="fill:none;fill-rule:nonzero;stroke:black;stroke-width:2.16px;stroke-linecap:round;stroke-linejoin:miter;"/>
    </g>
    <g transform="matrix(0.564428,0,0,-0.561902,-64.4826,292.274)">
        <path d="M160.28,409.6L164.88,409.6" style="fill:none;fill-rule:nonzero;stroke:black;stroke-width:2.16px;stroke-linecap:round;stroke-linejoin:miter;"/>
    </g>
    <g transform="matrix(0.564428,0,0,-0.561902,-64.4826,238.376)">
        <path d="M160.28,361.64L164.88,361.64" style="fill:none;fill-rule:nonzero;stroke:black;stroke-width:2.16px;stroke-linecap:round;stroke-linejoin:miter;"/>
    </g>
    <g transform="matrix(0.564428,0,0,-0.561902,-64.4826,184.479)">
        <path d="M160.28,313.68L164.88,313.68" style="fill:none;fill-rule:nonzero;stroke:black;stroke-width:2.16px;stroke-linecap:round;stroke-linejoin:miter;"/>
    </g>
    <g transform="matrix(1,0,0,1,-35,-30.5997)">
        <rect x="218.397" y="39.059" width="121.916" height="81.482" style="fill:white;fill-opacity:0;"/>
    </g>
    <g transform="matrix(0.564426,0,0,-0.563501,90.334,204.625)">
        <path d="M164.88,330.84L380.88,330.84" style="fill:none;fill-rule:nonzero;stroke:rgb(128,127,127);stroke-width:1.44px;stroke-linecap:round;stroke-linejoin:miter;stroke-dasharray:1.44,2.88;"/>
    </g>
    <g transform="matrix(0.564426,0,0,-0.563501,90.334,301.126)">
        <path d="M164.88,416.466L380.88,416.466" style="fill:none;fill-rule:nonzero;stroke:rgb(128,127,127);stroke-width:1.44px;stroke-linecap:round;stroke-linejoin:miter;stroke-dasharray:1.44,2.88;"/>
    </g>
    <g transform="matrix(0.564426,0,0,-0.563501,90.334,326.848)">
        <path d="M164.88,439.29L380.88,439.29" style="fill:none;fill-rule:nonzero;stroke:rgb(128,127,127);stroke-width:1.44px;stroke-linecap:round;stroke-linejoin:miter;stroke-dasharray:1.44,2.88;"/>
    </g>
    <g transform="matrix(1,0,0,1,-35,32.1518)">
        <rect x="220.903" y="45.821" width="10.16" height="5.207" style="fill:rgb(251,1,6);stroke:black;stroke-width:1.22px;"/>
    </g>
    <g transform="matrix(0.564426,0,0,-0.563501,185.903,84.0583)">
        <path d="M0,5.4L18,5.4" style="fill:none;fill-rule:nonzero;stroke:black;stroke-width:2.16px;stroke-linecap:round;stroke-linejoin:miter;"/>
    </g>
    <g transform="matrix(1,0,0,1,-35,23.9698)">
        <rect x="236.142" y="48.323" width="10.16" height="8.385" style="fill:rgb(251,1,6);stroke:black;stroke-width:1.22px;"/>
    </g>
    <g transform="matrix(0.564426,0,0,-0.563501,201.142,82.5707)">
        <path d="M0,9.12L18,9.12" style="fill:none;fill-rule:nonzero;stroke:black;stroke-width:2.16px;stroke-linecap:round;stroke-linejoin:miter;"/>
    </g>
    <g transform="matrix(1,0,0,1,-35,3.34559)">
        <rect x="251.382" y="53.665" width="10.16" height="18.325" style="fill:rgb(251,1,6);stroke:black;stroke-width:1.22px;"/>
    </g>
    <g transform="matrix(0.564426,0,0,-0.563501,216.382,79.5954)">
        <path d="M0,20.04L18,20.04" style="fill:none;fill-rule:nonzero;stroke:black;stroke-width:2.16px;stroke-linecap:round;stroke-linejoin:miter;"/>
    </g>
    <g transform="matrix(1,0,0,1,-35,-37.1589)">
        <rect x="266.621" y="67.459" width="10.16" height="31.24" style="fill:rgb(251,1,6);stroke:black;stroke-width:1.22px;"/>
    </g>
    <g transform="matrix(0.564426,0,0,-0.563501,231.621,66.139)">
        <path d="M0,31.8L18,31.8" style="fill:none;fill-rule:nonzero;stroke:black;stroke-width:2.16px;stroke-linecap:round;stroke-linejoin:miter;"/>
    </g>
    <g transform="matrix(1,0,0,1,-35,32.2194)">
        <rect x="281.861" y="45.821" width="10.16" height="5.139" style="fill:rgb(230,230,229);stroke:black;stroke-width:1.22px;"/>
    </g>
    <g transform="matrix(0.564426,0,0,-0.563501,246.861,84.126)">
        <path d="M0,5.4L18,5.4" style="fill:none;fill-rule:nonzero;stroke:black;stroke-width:2.16px;stroke-linecap:round;stroke-linejoin:miter;"/>
    </g>
    <g transform="matrix(1,0,0,1,-35,27.6889)">
        <rect x="297.101" y="46.835" width="10.16" height="7.641" style="fill:rgb(230,230,229);stroke:black;stroke-width:1.22px;"/>
    </g>
    <g transform="matrix(0.564426,0,0,-0.563501,262.101,83.4498)">
        <path d="M0,7.92L18,7.92" style="fill:none;fill-rule:nonzero;stroke:black;stroke-width:2.16px;stroke-linecap:round;stroke-linejoin:miter;"/>
    </g>
    <g transform="matrix(1,0,0,1,-35,21.6706)">
        <rect x="312.34" y="48.255" width="10.16" height="10.819" style="fill:rgb(230,230,229);stroke:black;stroke-width:1.22px;"/>
    </g>
    <g transform="matrix(0.564426,0,0,-0.563501,277.34,83.3145)">
        <path d="M0,11.88L18,11.88" style="fill:none;fill-rule:nonzero;stroke:black;stroke-width:2.16px;stroke-linecap:round;stroke-linejoin:miter;"/>
    </g>
    <g transform="matrix(1,0,0,1,-35,12.5419)">
        <rect x="327.58" y="50.284" width="10.16" height="15.891" style="fill:rgb(230,230,229);stroke:black;stroke-width:1.22px;"/>
    </g>
    <g transform="matrix(0.564426,0,0,-0.563501,292.579,82.4354)">
        <path d="M0,17.4L18,17.4" style="fill:none;fill-rule:nonzero;stroke:black;stroke-width:2.16px;stroke-linecap:round;stroke-linejoin:miter;"/>
    </g>
    <g transform="matrix(0.564426,0,0,-0.563501,90.334,347.439)">
        <path d="M164.88,457.56L380.88,457.56" style="fill:none;fill-rule:nonzero;stroke:black;stroke-width:2.16px;stroke-linejoin:miter;"/>
    </g>
    <g transform="matrix(0,0.563501,-0.564426,0,450.574,-9.6181)">
        <path d="M176.08,459.86L180.68,459.86" style="fill:none;fill-rule:nonzero;stroke:black;stroke-width:2.16px;stroke-linecap:round;stroke-linejoin:miter;"/>
    </g>
    <g transform="matrix(0,0.563501,-0.564426,0,465.813,-24.8327)">
        <path d="M203.08,459.86L207.68,459.86" style="fill:none;fill-rule:nonzero;stroke:black;stroke-width:2.16px;stroke-linecap:round;stroke-linejoin:miter;"/>
    </g>
    <g transform="matrix(0,0.563501,-0.564426,0,481.053,-40.0472)">
        <path d="M230.08,459.86L234.68,459.86" style="fill:none;fill-rule:nonzero;stroke:black;stroke-width:2.16px;stroke-linecap:round;stroke-linejoin:miter;"/>
    </g>
    <g transform="matrix(0,0.563501,-0.564426,0,496.292,-55.2617)">
        <path d="M257.08,459.86L261.68,459.86" style="fill:none;fill-rule:nonzero;stroke:black;stroke-width:2.16px;stroke-linecap:round;stroke-linejoin:miter;"/>
    </g>
    <g transform="matrix(0,0.563501,-0.564426,0,511.532,-70.4762)">
        <path d="M284.08,459.86L288.68,459.86" style="fill:none;fill-rule:nonzero;stroke:black;stroke-width:2.16px;stroke-linecap:round;stroke-linejoin:miter;"/>
    </g>
    <g transform="matrix(0,0.563501,-0.564426,0,526.771,-85.6908)">
        <path d="M311.08,459.86L315.68,459.86" style="fill:none;fill-rule:nonzero;stroke:black;stroke-width:2.16px;stroke-linecap:round;stroke-linejoin:miter;"/>
    </g>
    <g transform="matrix(0,0.563501,-0.564426,0,542.011,-100.905)">
        <path d="M338.08,459.86L342.68,459.86" style="fill:none;fill-rule:nonzero;stroke:black;stroke-width:2.16px;stroke-linecap:round;stroke-linejoin:miter;"/>
    </g>
    <g transform="matrix(0,0.563501,-0.564426,0,557.25,-116.12)">
        <path d="M365.08,459.86L369.68,459.86" style="fill:none;fill-rule:nonzero;stroke:black;stroke-width:2.16px;stroke-linecap:round;stroke-linejoin:miter;"/>
    </g>
    <g transform="matrix(1.0045,0,0,1,42.1273,98.485)">
        <text x="0px" y="0px" style="font-family:'Arial-BoldMT', 'Arial', sans-serif;font-weight:700;font-size:6.181px;">1</text>
    </g>
    <g transform="matrix(1.0045,0,0,1,72.6064,98.485)">
        <text x="0px" y="0px" style="font-family:'Arial-BoldMT', 'Arial', sans-serif;font-weight:700;font-size:6.181px;">2</text>
    </g>
    <g transform="matrix(1.0045,0,0,1,103.086,98.485)">
        <text x="0px" y="0px" style="font-family:'Arial-BoldMT', 'Arial', sans-serif;font-weight:700;font-size:6.181px;">3</text>
    </g>
    <g transform="matrix(1.0045,0,0,1,133.565,98.485)">
        <text x="0px" y="0px" style="font-family:'Arial-BoldMT', 'Arial', sans-serif;font-weight:700;font-size:6.181px;">4</text>
    </g>
    <g transform="matrix(1.0045,0,0,1,20.9432,91.315)">
        <text x="0px" y="0px" style="font-family:'Arial-BoldMT', 'Arial', sans-serif;font-weight:700;font-size:6.181px;">0</text>
    </g>
    <g transform="matrix(1.0045,0,0,1,21.3961,64.367)">
        <text x="0px" y="0px" style="font-family:'Arial-BoldMT', 'Arial', sans-serif;font-weight:700;font-size:6.181px;">1</text>
    </g>
    <g transform="matrix(1.0045,0,0,1,21.3961,37.418)">
        <text x="0px" y="0px" style="font-family:'Arial-BoldMT', 'Arial', sans-serif;font-weight:700;font-size:6.181px;">2</text>
    </g>
    <g transform="matrix(1.0045,0,0,1,21.3961,10.469)">
        <text x="0px" y="0px" style="font-family:'Arial-BoldMT', 'Arial', sans-serif;font-weight:700;font-size:6.181px;">3</text>
    </g>
    <g transform="matrix(1.0045,0,0,1,-7.3098,-5)">
        <g transform="matrix(1,0,0,1,55.9692,112.995)">
            <text x="0px" y="0px" style="font-family:'Arial-BoldMT', 'Arial', sans-serif;font-weight:700;font-size:6.743px;">D</text>
        </g>
        <g transform="matrix(1,0,0,1,60.7372,112.995)">
            <text x="0px" y="0px" style="font-family:'Arial-BoldMT', 'Arial', sans-serif;font-weight:700;font-size:6.743px;">ays after CFSE labelling</text>
        </g>
    </g>
    <g transform="matrix(0,-1,1,0,-7,-5)">
        <g transform="matrix(0.995524,0,0,1,-1.4335,0)">
            <g transform="matrix(1,0,0,1,-96.861,13.342)">
                <text x="0px" y="0px" style="font-family:'Arial-BoldMT', 'Arial', sans-serif;font-weight:700;font-size:6.773px;">C</text>
            </g>
            <g transform="matrix(1,0,0,1,-92.071,13.342)">
                <text x="0px" y="0px" style="font-family:'Arial-BoldMT', 'Arial', sans-serif;font-weight:700;font-size:6.773px;">FSE Fluorescence Intensity</text>
            </g>
        </g>
        <g transform="matrix(0.995524,0,0,1,-78.55,21.465)">
            <text x="0px" y="0px" style="font-family:'Arial-BoldMT', 'Arial', sans-serif;font-weight:700;font-size:6.773px;">(Arbitrary Units)</text>
        </g>
    </g>
    <g transform="matrix(0.707687,-0.706526,0.708849,0.705368,-7,-5)">
        <g transform="matrix(1,0,-0.001641,1,36.1878,213.38)">
            <text x="0px" y="0px" style="font-family:'Arial-BoldMT', 'Arial', sans-serif;font-weight:700;font-size:6.204px;">DOX CTRL</text>
        </g>
        <g transform="matrix(1,0,-0.001641,1,46.3728,224.147)">
            <text x="0px" y="0px" style="font-family:'Arial-BoldMT', 'Arial', sans-serif;font-weight:700;font-size:6.204px;">DOX 25 nM</text>
        </g>
        <g transform="matrix(1,0,-0.001641,1,57.1227,234.914)">
            <text x="0px" y="0px" style="font-family:'Arial-BoldMT', 'Arial', sans-serif;font-weight:700;font-size:6.204px;">DOX 50 nM</text>
        </g>
        <g transform="matrix(1,0,-0.001641,1,64.4877,245.681)">
            <text x="0px" y="0px" style="font-family:'Arial-BoldMT', 'Arial', sans-serif;font-weight:700;font-size:6.204px;">DOX 100 nM</text>
        </g>
    </g>
    <g transform="matrix(0.707687,-0.706526,0.708849,0.705368,-7,-5)">
        <g transform="matrix(1,0,-0.001641,1,79.7497,256.449)">
            <text x="0px" y="0px" style="font-family:'Arial-BoldMT', 'Arial', sans-serif;font-weight:700;font-size:6.204px;">NVB CTRL</text>
        </g>
        <g transform="matrix(1,0,-0.001641,1,89.9347,267.216)">
            <text x="0px" y="0px" style="font-family:'Arial-BoldMT', 'Arial', sans-serif;font-weight:700;font-size:6.204px;">NVB 10 nM</text>
        </g>
        <g transform="matrix(1,0,-0.001641,1,100.685,277.983)">
            <text x="0px" y="0px" style="font-family:'Arial-BoldMT', 'Arial', sans-serif;font-weight:700;font-size:6.204px;">NVB 20 nM</text>
        </g>
        <g transform="matrix(1,0,-0.001641,1,111.434,288.75)">
            <text x="0px" y="0px" style="font-family:'Arial-BoldMT', 'Arial', sans-serif;font-weight:700;font-size:6.204px;">NVB 40 nM</text>
        </g>
    </g>
    <g transform="matrix(0,-0.563501,0.564426,0,-34.2234,141.941)">
        <path d="M92.88,385.56L236.88,385.56" style="fill:none;fill-rule:nonzero;stroke:black;stroke-width:2.16px;stroke-linejoin:miter;"/>
    </g>
    <g transform="matrix(0.564426,0,0,-0.563501,90.334,347.439)">
        <path d="M160.28,457.56L164.88,457.56" style="fill:none;fill-rule:nonzero;stroke:black;stroke-width:2.16px;stroke-linecap:round;stroke-linejoin:miter;"/>
    </g>
    <g transform="matrix(0.564426,0,0,-0.563501,90.334,306.867)">
        <path d="M160.28,421.56L164.88,421.56" style="fill:none;fill-rule:nonzero;stroke:black;stroke-width:2.16px;stroke-linecap:round;stroke-linejoin:miter;"/>
    </g>
    <g transform="matrix(0.564426,0,0,-0.563501,90.334,266.294)">
        <path d="M160.28,385.56L164.88,385.56" style="fill:none;fill-rule:nonzero;stroke:black;stroke-width:2.16px;stroke-linecap:round;stroke-linejoin:miter;"/>
    </g>
    <g transform="matrix(0.564426,0,0,-0.563501,90.334,225.722)">
        <path d="M160.28,349.56L164.88,349.56" style="fill:none;fill-rule:nonzero;stroke:black;stroke-width:2.16px;stroke-linecap:round;stroke-linejoin:miter;"/>
    </g>
    <g transform="matrix(0.564426,0,0,-0.563501,90.334,185.15)">
        <path d="M160.28,313.56L164.88,313.56" style="fill:none;fill-rule:nonzero;stroke:black;stroke-width:2.16px;stroke-linecap:round;stroke-linejoin:miter;"/>
    </g>
    <g transform="matrix(1.00164,0,0,1,175.758,91.857)">
        <text x="0px" y="0px" style="font-family:'Arial-BoldMT', 'Arial', sans-serif;font-weight:700;font-size:6.199px;">0</text>
    </g>
    <g transform="matrix(1.00164,0,0,1,175.6,71.571)">
        <text x="0px" y="0px" style="font-family:'Arial-BoldMT', 'Arial', sans-serif;font-weight:700;font-size:6.199px;">2</text>
    </g>
    <g transform="matrix(1.00164,0,0,1,175.6,51.285)">
        <text x="0px" y="0px" style="font-family:'Arial-BoldMT', 'Arial', sans-serif;font-weight:700;font-size:6.199px;">4</text>
    </g>
    <g transform="matrix(1.00164,0,0,1,175.6,30.999)">
        <text x="0px" y="0px" style="font-family:'Arial-BoldMT', 'Arial', sans-serif;font-weight:700;font-size:6.199px;">6</text>
    </g>
    <g transform="matrix(1.00164,0,0,1,175.6,10.713)">
        <text x="0px" y="0px" style="font-family:'Arial-BoldMT', 'Arial', sans-serif;font-weight:700;font-size:6.199px;">8</text>
    </g>
    <g transform="matrix(1,0,0,1,-7,-5)">
        <g transform="matrix(1.00164,0,0,1,313.328,25.112)">
            <text x="0px" y="0px" style="font-family:'Arial-BoldMT', 'Arial', sans-serif;font-weight:700;font-size:6.199px;fill:rgb(128,127,127);">Day 2</text>
        </g>
        <g transform="matrix(1.00164,0,0,1,313.328,72.921)">
            <text x="0px" y="0px" style="font-family:'Arial-BoldMT', 'Arial', sans-serif;font-weight:700;font-size:6.199px;fill:rgb(128,127,127);">Day 3</text>
        </g>
        <g transform="matrix(1.00164,0,0,1,313.328,85.899)">
            <text x="0px" y="0px" style="font-family:'Arial-BoldMT', 'Arial', sans-serif;font-weight:700;font-size:6.199px;fill:rgb(128,127,127);">Day 4</text>
        </g>
    </g>
    <g transform="matrix(0,-1,1,0,-7,-5)">
        <g transform="matrix(0.99836,0,0,1,-1.15966,-19)">
            <g transform="matrix(1,0,0,1,-97.373,186.342)">
                <text x="0px" y="0px" style="font-family:'Arial-BoldMT', 'Arial', sans-serif;font-weight:700;font-size:6.773px;">C</text>
            </g>
            <g transform="matrix(1,0,0,1,-92.583,186.342)">
                <text x="0px" y="0px" style="font-family:'Arial-BoldMT', 'Arial', sans-serif;font-weight:700;font-size:6.773px;">FSE Fluorescence Intensity</text>
            </g>
        </g>
        <g transform="matrix(0.99836,0,0,1,-79.007,175.465)">
            <text x="0px" y="0px" style="font-family:'Arial-BoldMT', 'Arial', sans-serif;font-weight:700;font-size:6.773px;">(Arbitrary Units)</text>
        </g>
    </g>
</svg>
