<?xml version="1.0" encoding="UTF-8" standalone="no"?>
<!DOCTYPE svg PUBLIC "-//W3C//DTD SVG 1.1//EN" "http://www.w3.org/Graphics/SVG/1.1/DTD/svg11.dtd">
<svg width="100%" height="100%" viewBox="0 0 445 170" version="1.1" xmlns="http://www.w3.org/2000/svg" xmlns:xlink="http://www.w3.org/1999/xlink" xml:space="preserve" xmlns:serif="http://www.serif.com/" style="fill-rule:evenodd;clip-rule:evenodd;stroke-miterlimit:8;">
    <g transform="matrix(1,0,0,1,-255,-186.933)">
        <path d="M454.426,317.733L451.568,317.684L448.937,317.604L446.434,317.504L444.072,317.384L441.864,317.247L439.824,317.092L437.965,316.922L436.299,316.736L434.838,316.536L433.589,316.32L432.553,316.084L431.702,315.808L430.912,315.377L430.445,314.606L430.445,232.327L430.912,231.556L431.702,231.125L432.553,230.849L433.589,230.613L434.838,230.397L436.299,230.197L437.965,230.012L439.824,229.841L441.864,229.686L444.072,229.549L446.434,229.429L448.937,229.329L451.568,229.249L454.426,229.2L454.465,231.45L451.614,231.498L451.63,231.498L449.011,231.578L449.022,231.577L446.531,231.677L446.542,231.677L444.193,231.796L444.206,231.795L442.012,231.932L442.026,231.931L440.003,232.084L440.02,232.082L438.181,232.251L438.203,232.249L436.562,232.432L436.59,232.428L435.163,232.624L435.202,232.618L434.002,232.826L434.06,232.814L433.101,233.032L433.198,233.005L432.496,233.233L432.688,233.15L432.256,233.386L432.68,232.982L432.532,233.224L432.695,232.641L432.695,314.292L432.532,313.709L432.68,313.951L432.256,313.547L432.688,313.783L432.496,313.7L433.198,313.928L433.101,313.901L434.06,314.119L434.002,314.108L435.202,314.315L435.163,314.309L436.59,314.505L436.562,314.501L438.203,314.684L438.181,314.682L440.02,314.851L440.003,314.849L442.026,315.002L442.012,315.001L444.206,315.138L444.193,315.137L446.542,315.256L446.531,315.256L449.022,315.356L449.011,315.355L451.63,315.435L451.614,315.435L454.465,315.484L454.426,317.733ZM453.356,313.222L460.07,316.667L453.286,319.972L453.356,313.222ZM453.286,226.962L460.07,230.267L453.356,233.711L453.286,226.962Z" style="fill-rule:nonzero;"/>
    </g>
    <g transform="matrix(7.87398e-05,2.24551e-07,-2.24551e-07,7.87398e-05,83.8339,86.2665)">
        <path d="M-2.417,1695L1.18872e+06,1695" style="fill:none;stroke:black;stroke-width:28575px;"/>
    </g>
    <g transform="matrix(1,0,0,1,-255,-105.387)">
        <path d="M467.434,206.294C467.434,199.003 473.344,193.093 480.634,193.093L547.371,193.093C554.661,193.093 560.571,199.003 560.571,206.294L560.571,259.093C560.571,266.383 554.661,272.293 547.371,272.293L480.634,272.293C473.344,272.293 467.434,266.383 467.434,259.093L467.434,206.294Z" style="fill:rgb(217,217,217);fill-rule:nonzero;"/>
    </g>
    <g transform="matrix(0,-7.87402e-05,7.87402e-05,0,242.182,148.357)">
        <path d="M174076,0C270216,0 348153,77936.7 348153,174076C348153,270216 270216,348153 174076,348153C77936.7,348153 0,270216 0,174076C0,77936.7 77936.7,0 174076,0Z" style="fill:none;stroke:black;stroke-width:28575px;"/>
    </g>
    <g transform="matrix(1,0,0,1,-255,-180)">
        <text x="501.264px" y="321.12px" style="font-family:'ArialMT', 'Arial', sans-serif;font-size:16px;fill:rgb(255,0,0);">D</text>
        <text x="512.818px" y="324px" style="font-family:'ArialMT', 'Arial', sans-serif;font-size:11px;fill:rgb(255,0,0);">N</text>
    </g>
    <g transform="matrix(1,0,0,1,-255,-180)">
        <text x="475.199px" y="286.08px" style="font-family:'ArialMT', 'Arial', sans-serif;font-size:16px;">1</text>
    </g>
    <g transform="matrix(-4.51491e-05,6.45102e-05,6.45102e-05,4.51491e-05,246.717,109.371)">
        <path d="M-150087,288235L553544,288235" style="fill:none;stroke:black;stroke-width:28575px;"/>
    </g>
    <g transform="matrix(1,0,0,1,-255,-276.196)">
        <path d="M466.869,291.698C466.869,284.408 472.779,278.498 480.069,278.498L684.105,278.498C691.395,278.498 697.305,284.408 697.305,291.698L697.305,344.498C697.305,351.788 691.395,357.698 684.105,357.698L480.069,357.698C472.779,357.698 466.869,351.788 466.869,344.498L466.869,291.698Z" style="fill:rgb(217,217,217);fill-rule:nonzero;"/>
    </g>
    <g transform="matrix(0,-7.87402e-05,7.87402e-05,0,231.046,73.1174)">
        <path d="M288235,0C447423,0 576470,129047 576470,288235C576470,447423 447423,576470 288235,576470C129047,576470 0,447423 0,288235C0,129047 129047,0 288235,0Z" style="fill:none;stroke:black;stroke-width:28575px;"/>
    </g>
    <g transform="matrix(1,0,0,1,-255,-259.809)">
        <path d="M545.092,308.779L604.267,308.779L604.267,311.029L545.092,311.029L545.092,308.779ZM603.142,306.529L609.892,309.904L603.142,313.279L603.142,306.529Z" style="fill-rule:nonzero;"/>
    </g>
    <g transform="matrix(0,-7.87402e-05,7.87402e-05,0,367.861,73.1174)">
        <path d="M288235,0C447423,0 576470,129047 576470,288235C576470,447423 447423,576470 288235,576470C129047,576470 0,447423 0,288235C0,129047 129047,0 288235,0Z" style="fill:none;stroke:black;stroke-width:28575px;"/>
    </g>
    <g transform="matrix(0,-7.87402e-05,7.87402e-05,0,29.0833,115.151)">
        <path d="M288235,0C447423,0 576470,129047 576470,288235C576470,447423 447423,576470 288235,576470C129047,576470 0,447423 0,288235C0,129047 129047,0 288235,0Z" style="fill:none;stroke:black;stroke-width:28575px;"/>
    </g>
    <g transform="matrix(1,0,0,1,-255,-218.214)">
        <path d="M285.812,304.398L283.409,303.662L280.999,302.954L281.014,302.959L278.665,302.234L278.708,302.248L276.475,301.458L276.551,301.488L274.495,300.586L274.61,300.645L272.792,299.583L272.904,299.657L272.103,299.053L272.188,299.123L271.47,298.461L271.558,298.552L270.931,297.827L271.016,297.939L270.487,297.145L270.552,297.256L270.1,296.375L270.14,296.462L269.741,295.487L269.77,295.566L269.427,294.508L269.448,294.58L269.163,293.452L269.184,293.551L268.801,291.129L268.813,291.253L268.697,288.687L268.695,288.812L268.866,286.196L268.849,286.329L269.329,283.756L269.303,283.865L269.666,282.624L269.639,282.703L270.087,281.507L270.051,281.592L270.587,280.454L270.54,280.543L271.166,279.474L271.095,279.581L271.834,278.596L271.744,278.702L272.606,277.808L272.515,277.893L273.483,277.089L273.394,277.156L274.455,276.44L274.37,276.492L275.507,275.863L275.427,275.903L276.624,275.359L276.514,275.402L279.027,274.566L278.891,274.602L281.459,274.091L281.328,274.109L283.827,273.912L283.723,273.915L284.908,273.931L284.833,273.927L285.953,274.017L285.869,274.007L286.91,274.17L286.813,274.15L287.759,274.384L287.597,274.331L288.487,274.701L288.32,274.615L289.202,275.17L289.086,275.087L289.956,275.802L289.876,275.73L290.728,276.581L290.672,276.52L291.502,277.482L291.461,277.432L292.266,278.48L292.224,278.421L293.736,280.675L293.692,280.604L295.126,283.128L297.082,282.016L295.628,279.456L294.072,277.138L293.226,276.036L292.348,275.018L291.428,274.1L290.461,273.304L289.439,272.66L288.382,272.221L287.306,271.954L286.175,271.777L284.975,271.681L283.701,271.664L281.085,271.871L278.383,272.409L275.748,273.286L274.456,273.872L273.237,274.547L272.089,275.322L271.03,276.201L270.076,277.19L269.257,278.282L268.573,279.45L267.996,280.675L267.518,281.953L267.128,283.288L266.625,285.982L266.446,288.727L266.568,291.418L266.969,293.953L267.275,295.167L267.643,296.3L268.076,297.359L268.579,298.34L269.183,299.246L269.898,300.072L270.703,300.815L271.6,301.493L273.532,302.62L275.685,303.565L277.979,304.377L280.358,305.111L282.769,305.819L282.756,305.815L285.153,306.549L285.812,304.398ZM292.598,283.177L298.764,287.528L298.546,279.985L292.598,283.177Z" style="fill-rule:nonzero;"/>
    </g>
    <g transform="matrix(1,0,0,1,-255,-180)">
        <text x="484.075px" y="286.08px" style="font-family:'ArialMT', 'Arial', sans-serif;font-size:16px;">-apopfrac</text>
    </g>
    <g transform="matrix(1,0,0,1,-255,-180)">
        <text x="503.429px" y="236.88px" style="font-family:'ArialMT', 'Arial', sans-serif;font-size:16px;fill:rgb(0,176,80);">A</text>
    </g>
    <g transform="matrix(1,0,0,1,-255,-180)">
        <text x="636.245px" y="236.88px" style="font-family:'ArialMT', 'Arial', sans-serif;font-size:16px;fill:rgb(255,255,0);">D</text>
        <text x="647.799px" y="239.76px" style="font-family:'ArialMT', 'Arial', sans-serif;font-size:11px;fill:rgb(255,255,0);">A</text>
    </g>
    <g transform="matrix(1,0,0,1,-255,-180)">
        <text x="474.634px" y="199.44px" style="font-family:'ArialMT', 'Arial', sans-serif;font-size:16px;">apopfrac</text>
    </g>
    <g transform="matrix(1,0,0,1,-255,-180)">
        <text x="571.531px" y="225.84px" style="font-family:'ArialMT', 'Arial', sans-serif;font-size:16px;">d</text>
    </g>
    <g transform="matrix(1,0,0,1,-255,-180)">
        <text x="347.175px" y="259.44px" style="font-family:'ArialMT', 'Arial', sans-serif;font-size:16px;">deathRate</text>
    </g>
    <g transform="matrix(1,0,0,1,-255,-180)">
        <text x="302.342px" y="278.88px" style="font-family:'ArialMT', 'Arial', sans-serif;font-size:16px;fill:rgb(68,114,196);">L</text>
    </g>
    <g transform="matrix(0.670651,-0.741773,0.741773,0.670651,-255,-180)">
        <text x="-6.231px" y="358.842px" style="font-family:'ArialMT', 'Arial', sans-serif;font-size:16px;">div</text>
    </g>
</svg>
