<?xml version="1.0" encoding="UTF-8" standalone="no"?>
<!DOCTYPE svg PUBLIC "-//W3C//DTD SVG 1.1//EN" "http://www.w3.org/Graphics/SVG/1.1/DTD/svg11.dtd">
<svg width="100%" height="100%" viewBox="0 0 387 186" version="1.1" xmlns="http://www.w3.org/2000/svg" xmlns:xlink="http://www.w3.org/1999/xlink" xml:space="preserve" xmlns:serif="http://www.serif.com/" style="fill-rule:evenodd;clip-rule:evenodd;stroke-miterlimit:8;">
    <g transform="matrix(1,0,0,1,-302,-320.642)">
        <path d="M358.855,329.869C358.855,325.326 362.538,321.643 367.081,321.643L552.693,321.643C557.237,321.643 560.92,325.326 560.92,329.869L560.92,362.773C560.92,367.316 557.237,370.999 552.693,370.999L367.081,370.999C362.538,370.999 358.855,367.316 358.855,362.773L358.855,329.869Z" style="fill:rgb(217,217,217);fill-rule:nonzero;"/>
    </g>
    <g transform="matrix(1,0,0,1,-302,-236.745)">
        <path d="M530.324,259.955C530.324,247.689 540.267,237.746 552.533,237.746L665.1,237.746C677.365,237.746 687.309,247.689 687.309,259.955L687.309,348.79C687.309,361.056 677.365,370.999 665.1,370.999L552.533,370.999C540.267,370.999 530.324,361.056 530.324,348.79L530.324,259.955Z" style="fill:rgb(217,217,217);fill-rule:nonzero;"/>
    </g>
    <g transform="matrix(1,0,0,1,-302,-133.755)">
        <path d="M358.855,209.96C358.855,198.108 368.463,188.5 380.315,188.5L468.435,188.5C480.287,188.5 489.895,198.108 489.895,209.96L489.895,295.796C489.895,307.648 480.287,317.255 468.435,317.255L380.315,317.255C368.463,317.255 358.855,307.648 358.855,295.796L358.855,209.96Z" style="fill:rgb(218,227,243);fill-rule:nonzero;stroke:rgb(68,114,196);stroke-width:2.25px;"/>
    </g>
    <g transform="matrix(0,-7.87402e-05,7.87402e-05,0,2.1617,50.7826)">
        <path d="M288235,0C447423,0 576470,129047 576470,288235C576470,447423 447423,576470 288235,576470C129047,576470 0,447423 0,288235C0,129047 129047,0 288235,0Z" style="fill:none;stroke:black;stroke-width:28575px;"/>
    </g>
    <g transform="matrix(5.95657e-11,7.87402e-05,-7.87402e-05,5.95657e-11,308.94,57.5972)">
        <path d="M-660952,660952L660952,660952" style="fill:none;stroke:black;stroke-width:28575px;"/>
    </g>
    <g transform="matrix(7.87402e-05,0,0,-7.87402e-05,255.896,108.858)">
        <path d="M0,1L1.53063e+06,0" style="fill:none;stroke:black;stroke-width:28575px;"/>
    </g>
    <g transform="matrix(7.87402e-05,0,0,-7.87402e-05,256.896,109.289)">
        <path d="M0,1.08884e+06C140804,1.08139e+06 331304,1.10375e+06 526774,1.0789e+06C722244,1.05406e+06 717274,341751 874643,164503C1.03201e+06,-12745 1.36332e+06,36951 1.47099e+06,15416" style="fill:none;stroke:black;stroke-width:28575px;"/>
    </g>
    <g transform="matrix(0,-7.87402e-05,7.87402e-05,0,133.098,107.331)">
        <path d="M288235,0C447423,0 576470,129047 576470,288235C576470,447423 447423,576470 288235,576470C129047,576470 0,447423 0,288235C0,129047 129047,0 288235,0Z" style="fill:none;stroke:rgb(68,114,196);stroke-width:28575px;"/>
    </g>
    <g transform="matrix(1,0,0,1,-302,-179.24)">
        <path d="M373.337,245.89L373.337,298.726L371.087,298.726L371.087,245.89L373.337,245.89ZM375.587,297.601L372.212,304.351L368.837,297.601L375.587,297.601Z" style="fill:rgb(68,114,196);fill-rule:nonzero;"/>
    </g>
    <g transform="matrix(1,0,0,1,-302,-236.701)">
        <path d="M371.59,303.225L425.215,303.225L425.215,305.475L371.59,305.475L371.59,303.225ZM424.09,300.975L430.84,304.35L424.09,307.725L424.09,300.975Z" style="fill:rgb(68,114,196);fill-rule:nonzero;"/>
    </g>
    <g transform="matrix(0.707108,-0.707106,-0.707106,-0.707108,14.9457,561.009)">
        <rect x="360.68" y="274.754" width="51.895" height="26.658" style="fill:rgb(242,242,242);fill-opacity:0.670588;"/>
    </g>
    <g transform="matrix(1,0,0,1,-302,-168)">
        <text x="313.17px" y="202.56px" style="font-family:'ArialMT', 'Arial', sans-serif;font-size:16px;">C</text>
        <text x="324.625px" y="202.56px" style="font-family:'ArialMT', 'Arial', sans-serif;font-size:16px;">e</text>
        <text x="333.523px" y="202.56px" style="font-family:'ArialMT', 'Arial', sans-serif;font-size:16px;">l<tspan x="336.978px " y="202.56px ">l</tspan></text>
    </g>
    <g transform="matrix(0,-1,1,0,-302,-168)">
        <text x="-273.36px" y="547.901px" style="font-family:'ArialMT', 'Arial', sans-serif;font-size:16px;"># of</text>
        <text x="-242.138px" y="547.901px" style="font-family:'ArialMT', 'Arial', sans-serif;font-size:16px;">li</text>
        <text x="-235.229px" y="547.901px" style="font-family:'ArialMT', 'Arial', sans-serif;font-size:16px;">ve ce</text>
        <text x="-196.942px" y="547.901px" style="font-family:'ArialMT', 'Arial', sans-serif;font-size:16px;">ll</text>
        <text x="-190.033px" y="547.901px" style="font-family:'ArialMT', 'Arial', sans-serif;font-size:16px;">s</text>
    </g>
    <g transform="matrix(1,0,0,1,-302,-168)">
        <text x="577.868px" y="296.4px" style="font-family:'ArialMT', 'Arial', sans-serif;font-size:16px;">Log</text>
        <text x="604.564px" y="299.52px" style="font-family:'ArialMT', 'Arial', sans-serif;font-size:11px;">10</text>
        <text x="616.799px" y="296.4px" style="font-family:'ArialMT', 'Arial', sans-serif;font-size:16px;">[</text>
        <text x="621.344px" y="296.4px" style="font-family:'ArialMT', 'Arial', sans-serif;font-size:16px;">D</text>
        <text x="632.899px" y="296.4px" style="font-family:'ArialMT', 'Arial', sans-serif;font-size:16px;">r</text>
        <text x="638.327px" y="296.4px" style="font-family:'ArialMT', 'Arial', sans-serif;font-size:16px;">ug</text>
        <text x="656.124px" y="296.4px" style="font-family:'ArialMT', 'Arial', sans-serif;font-size:16px;">]</text>
    </g>
    <g transform="matrix(1,0,0,1,-302,-168)">
        <text x="414.758px" y="189.36px" style="font-family:'ArialMT', 'Arial', sans-serif;font-size:16px;">Drug</text>
    </g>
    <g transform="matrix(1,0,0,1,-302,-168)">
        <text x="444.106px" y="258.96px" style="font-family:'ArialMT', 'Arial', sans-serif;font-size:16px;fill:rgb(68,114,196);">C</text>
        <text x="455.561px" y="258.96px" style="font-family:'ArialMT', 'Arial', sans-serif;font-size:16px;fill:rgb(68,114,196);">e</text>
        <text x="464.459px" y="258.96px" style="font-family:'ArialMT', 'Arial', sans-serif;font-size:16px;fill:rgb(68,114,196);">l<tspan x="467.914px " y="258.96px ">l</tspan></text>
    </g>
    <g transform="matrix(0.707107,-0.707107,0.707107,0.707107,-302,-168)">
        <text x="77.966px" y="457.767px" style="font-family:'ArialMT', 'Arial', sans-serif;font-size:16px;fill:rgb(68,114,196);">Drug</text>
    </g>
    <g transform="matrix(0,-7.87402e-05,7.87402e-05,0,65.9513,157.26)">
        <path d="M147070,0C228295,0 294141,65845.7 294141,147070C294141,228295 228295,294141 147070,294141C65845.7,294141 0,228295 0,147070C0,65845.7 65845.7,0 147070,0Z" style="fill:none;stroke:rgb(68,114,196);stroke-width:28575px;"/>
    </g>
    <g transform="matrix(-4.51491e-05,6.45102e-05,6.45102e-05,4.51491e-05,68.0261,118.815)">
        <path d="M-150087,288235L553544,288235" style="fill:none;stroke:rgb(68,114,196);stroke-width:28575px;"/>
    </g>
    <g transform="matrix(1,0,0,1,-302,-315.826)">
        <path d="M360.478,342.788L518.125,342.788L518.125,345.038L360.478,345.038L360.478,342.788ZM517,340.538L523.75,343.913L517,347.288L517,340.538Z" style="fill-rule:nonzero;"/>
    </g>
    <g transform="matrix(7.87402e-05,0,0,7.87402e-05,187.854,28.1769)">
        <path d="M0,1.09728e+06L115086,1.09728e+06L115086,0L347472,0" style="fill:none;stroke:rgb(68,114,196);stroke-width:28575px;"/>
    </g>
    <g transform="matrix(1,0,0,1,-302,-133.119)">
        <path d="M449.298,238.051L448.217,240.319L447.11,242.574L447.117,242.56L446.063,244.782L446.082,244.74L445.483,246.148L443.413,245.267L444.02,243.838L445.087,241.589L446.194,239.334L446.189,239.345L447.267,237.083L449.298,238.051ZM443.98,252.215L443.982,252.634L443.974,252.507L444.085,253.46L444.06,253.321L444.287,254.248L444.25,254.125L444.594,255.054L444.556,254.965L445.006,255.918L444.967,255.843L445.515,256.811L445.476,256.747L446.115,257.719L446.056,257.637L447.518,259.475L445.757,260.876L444.263,258.998L443.575,257.952L442.988,256.915L442.501,255.881L442.118,254.846L441.858,253.789L441.732,252.704L441.731,252.221L443.98,252.215ZM452.388,263.535L453.374,264.15L453.276,264.095L454.436,264.667L454.36,264.633L455.543,265.111L455.457,265.08L456.658,265.454L456.56,265.429L457.771,265.689L457.645,265.67L458.87,265.79L458.731,265.785L459.972,265.754L459.848,265.764L460.145,265.724L460.45,267.953L460.091,268.002L458.718,268.036L457.36,267.903L456.036,267.617L454.743,267.214L453.478,266.704L452.231,266.089L451.198,265.444L452.388,263.535ZM466.045,263.578L466.701,263.213L466.583,263.288L468.696,261.741L468.593,261.825L470.427,260.117L470.355,260.191L471.144,259.307L471.096,259.365L471.787,258.479L471.737,258.547L472.189,257.868L474.063,259.114L473.587,259.829L472.847,260.778L471.999,261.728L470.079,263.517L467.856,265.145L467.138,265.544L466.045,263.578ZM472.991,252.116L472.983,252.046L472.992,252.11L472.764,250.809L472.778,250.88L472.139,248.242L472.162,248.323L471.271,245.56L473.412,244.869L474.316,247.672L474.973,250.385L475.214,251.753L475.226,251.854L472.991,252.116ZM469.526,247.39L470.486,239.905L475.898,245.164L469.526,247.39Z" style="fill:rgb(68,114,196);fill-rule:nonzero;"/>
    </g>
</svg>
